<?xml version="1.0" encoding="UTF-8"?>
<svg version="1.1" xmlns="http://www.w3.org/2000/svg" width="512" height="512">
<path d="M0 0 C1.423125 -0.01546875 1.423125 -0.01546875 2.875 -0.03125 C10.32831801 1.23581406 15.56796305 5.47890631 20.74359131 10.73565674 C21.37238796 11.35821342 22.0011846 11.98077011 22.64903569 12.62219214 C24.73881462 14.69610587 26.81410815 16.78391433 28.88964844 18.87207031 C30.39088204 20.36787996 31.89296442 21.86283816 33.39582825 23.35700989 C37.46479878 27.40777699 41.5210529 31.47105673 45.57457638 35.53727436 C49.82279783 39.79563875 54.08078828 44.04421697 58.33721924 48.29437256 C65.4828392 55.43271993 72.61999455 62.57944913 79.75244141 69.73095703 C87.99290589 77.99318932 96.24768124 86.24091305 104.51003814 94.48124814 C111.6097311 101.5627762 118.70158291 108.65208599 125.78696656 115.74793124 C130.01606399 119.98325752 134.24780031 124.21585205 138.48662567 128.4414444 C142.47167883 132.41492403 146.44678354 136.39809777 150.41449547 140.38889122 C151.87031561 141.84999031 153.32953176 143.30771488 154.79240608 144.76175117 C156.79246714 146.75084182 158.77973898 148.75191247 160.76434326 150.75640869 C161.34255003 151.32569257 161.92075679 151.89497645 162.51648498 152.48151135 C166.99997147 157.0522517 170.41563095 162.03519766 171.49609375 168.44140625 C171.32466839 176.10983415 169.90837125 182.21277198 164.64453125 188.14453125 C160.2818247 191.74039627 154.89751602 193.27098945 149.375 193.9375 C135.36576654 192.12148826 126.72113883 180.36430554 117.25 170.86352539 C115.97811519 169.59135809 114.7060093 168.31941178 113.43370056 167.04766846 C110.00022352 163.61447694 106.56982665 160.17822291 103.13999557 156.74138951 C99.54768576 153.14280541 95.9525217 149.54707509 92.35766602 145.95103455 C85.55959879 139.14986599 78.76408354 132.34615355 71.96949291 125.54151195 C64.23020513 117.79102576 56.48805922 110.0433973 48.74567795 102.29600155 C32.82728109 86.36716744 16.91245726 70.43476745 1 54.5 C-2.93193601 56.09152464 -5.56675377 58.80057154 -8.48983765 61.76951599 C-9.03213441 62.31222061 -9.57443118 62.85492522 -10.13316119 63.41407543 C-11.94951514 65.2341605 -13.75861611 67.06128783 -15.56787109 68.88842773 C-16.86860191 70.19463386 -18.16979652 71.50037827 -19.47142029 72.80569458 C-22.27396061 75.61794903 -25.07341178 78.43323075 -27.8705864 81.25082207 C-32.29411148 85.70614526 -36.72577342 90.1533136 -41.15884399 94.59913635 C-52.16952697 105.64391545 -63.17091459 116.69794112 -74.16741943 127.75683594 C-82.71155933 136.34942594 -91.25885701 144.93881392 -99.81676733 153.51769215 C-104.22373052 157.93617892 -108.62365626 162.36152038 -113.01844382 166.79211605 C-115.75525322 169.54812467 -118.4983064 172.29785234 -121.24313545 175.04587173 C-122.51397268 176.32072623 -123.78222434 177.59816421 -125.04767036 178.87837029 C-126.77696437 180.62710216 -128.51532272 182.36630545 -130.25619507 184.10350037 C-130.75348566 184.61089373 -131.25077626 185.11828709 -131.76313627 185.641056 C-136.86901095 190.69574195 -142.08809637 193.10880964 -149.125 193.8125 C-155.9140214 193.26499827 -161.88134231 191.23449321 -166.5 186.0625 C-170.03865844 181.62889016 -171.30107161 177.32823581 -171.375 171.6875 C-171.40335937 170.71167969 -171.43171875 169.73585938 -171.4609375 168.73046875 C-170.38767182 161.20851355 -166.03147952 155.9422625 -160.76434326 150.75640869 C-160.14178658 150.12761204 -159.51922989 149.4988154 -158.87780786 148.85096431 C-156.80389413 146.76118538 -154.71608567 144.68589185 -152.62792969 142.61035156 C-151.13212004 141.10911796 -149.63716184 139.60703558 -148.14299011 138.10417175 C-144.09222301 134.03520122 -140.02894327 129.9789471 -135.96272564 125.92542362 C-131.70436125 121.67720217 -127.45578303 117.41921172 -123.20562744 113.16278076 C-116.06728007 106.0171608 -108.92055087 98.88000545 -101.76904297 91.74755859 C-93.50681068 83.50709411 -85.25908695 75.25231876 -77.01875186 66.98996186 C-69.9372238 59.8902689 -62.84791401 52.79841709 -55.75206876 45.71303344 C-51.51674248 41.48393601 -47.28414795 37.25219969 -43.0585556 33.01337433 C-39.08507597 29.02832117 -35.10190223 25.05321646 -31.11110878 21.08550453 C-29.65000969 19.62968439 -28.19228512 18.17046824 -26.73824883 16.70759392 C-24.74915818 14.70753286 -22.74808753 12.72026102 -20.74359131 10.73565674 C-20.17430743 10.15744997 -19.60502355 9.57924321 -19.01848865 8.98351502 C-13.63827855 3.70601127 -7.74478214 -0.08418241 0 0 Z " fill="#000000" transform="translate(256,148.5)"/>
</svg>
