<?xml version="1.0" encoding="UTF-8"?>
<svg version="1.1" xmlns="http://www.w3.org/2000/svg" width="512" height="512">
<path d="M0 0 C4.74398354 2.80933563 8.45783872 6.17693938 12.30221558 10.06170654 C12.90762432 10.66540644 13.51303307 11.26910634 14.13678753 11.89110017 C16.15440017 13.90543124 18.16480364 15.92680326 20.17529297 17.94824219 C21.6240057 19.39751932 23.07315949 20.84635569 24.52272034 22.29478455 C28.45028421 26.22177503 32.37165473 30.15489767 36.29194021 34.08915234 C40.39230895 38.20203075 44.49834906 42.30923923 48.60379028 46.41705322 C56.37432832 54.19380532 64.13975438 61.97564124 71.90335572 69.75931764 C80.74339034 78.62171353 89.5891104 87.47842533 98.43531203 96.33466482 C116.62987353 114.55012664 134.81728541 132.7727131 153 151 C157.16843375 149.36374273 159.95090486 146.31591155 163.03479004 143.19226074 C163.63566767 142.59168083 164.23654531 141.99110091 164.85563135 141.37232161 C166.87012333 139.35643944 168.87737452 137.33349826 170.88476562 135.31054688 C172.32667859 133.86479609 173.76904721 132.41949962 175.21183777 130.97462463 C178.31891692 127.8612198 181.42286049 124.74473355 184.52445984 121.62586975 C189.42673956 116.69658008 194.33660735 111.7748966 199.24768066 106.85437012 C209.67103335 96.40880223 220.08593685 85.95482819 230.5 75.5 C241.74196138 64.21403284 252.98533194 52.92949258 264.23848295 41.65468073 C269.12246114 36.76072254 274.00151707 31.8619245 278.87689972 26.95940399 C281.90805082 23.91335852 284.9433178 20.87144036 287.97973061 17.83064079 C289.38920095 16.41741898 290.7969376 15.00246568 292.20282555 13.58568001 C294.11904647 11.65507248 296.04130799 9.73068799 297.96520996 7.80773926 C298.52279952 7.24295978 299.08038907 6.6781803 299.65487528 6.0962863 C304.34901473 1.42707702 307.26385158 -0.2908887 313.875 -0.375 C319.08266907 -0.27363418 322.10580633 0.30051602 326 4 C330.41415841 8.64648254 330.46758261 12.88793066 330.53125 19 C329.35139834 25.66269174 324.02147082 30.26600122 319.39575195 34.85821533 C318.73362103 35.52346623 318.07149012 36.18871713 317.38929462 36.87412715 C315.17701718 39.09436001 312.95768615 41.30740147 310.73828125 43.52050781 C309.14772752 45.11377244 307.55759939 46.70746205 305.96786499 48.30154419 C301.65446422 52.62405799 297.33476661 56.94022713 293.01363754 61.25501347 C288.49348315 65.77010405 283.97821078 70.29007258 279.4621582 74.80926514 C271.39412735 82.88116674 263.32106786 90.94801322 255.24601567 99.012889 C247.92452772 106.3254358 240.60830788 113.643219 233.29589844 120.96484375 C224.80015441 129.47128937 216.3010649 137.97436557 207.79701138 146.47250628 C203.29673066 150.96966611 198.79781897 155.46817311 194.30239868 159.97019196 C190.07820008 164.2001578 185.84915822 168.42522031 181.61629105 172.64651108 C180.06171741 174.19843515 178.50885259 175.75207307 176.95780563 177.30752182 C174.84453449 179.42623779 172.72523246 181.53872897 170.60424805 183.64971924 C169.98829427 184.27013446 169.37234049 184.89054968 168.73772144 185.52976537 C167.88301022 186.37665335 167.88301022 186.37665335 167.0110321 187.24065018 C166.52260173 187.72875585 166.03417135 188.21686152 165.53094006 188.71975827 C161.91458225 191.7439212 158.77920315 192.31578622 154.125 192.375 C153.11695313 192.40335938 152.10890625 192.43171875 151.0703125 192.4609375 C144.36086093 191.45366615 139.73377192 186.0212423 135.14178467 181.39575195 C134.14390832 180.40255558 134.14390832 180.40255558 133.12587285 179.38929462 C130.90563999 177.17701718 128.69259853 174.95768615 126.47949219 172.73828125 C124.88622756 171.14772752 123.29253795 169.55759939 121.69845581 167.96786499 C117.37594201 163.65446422 113.05977287 159.33476661 108.74498653 155.01363754 C104.22989595 150.49348315 99.70992742 145.97821078 95.19073486 141.4621582 C87.11883326 133.39412735 79.05198678 125.32106786 70.987111 117.24601567 C63.6745642 109.92452772 56.356781 102.60830788 49.03515625 95.29589844 C40.52871063 86.80015441 32.02563443 78.3010649 23.52749372 69.79701138 C19.03033389 65.29673066 14.53182689 60.79781897 10.02980804 56.30239868 C5.7998422 52.07820008 1.57477969 47.84915822 -2.64651108 43.61629105 C-4.19843515 42.06171741 -5.75207307 40.50885259 -7.30752182 38.95780563 C-9.42623779 36.84453449 -11.53872897 34.72523246 -13.64971924 32.60424805 C-14.27013446 31.98829427 -14.89054968 31.37234049 -15.52976537 30.73772144 C-16.09435735 30.16791396 -16.65894934 29.59810648 -17.24065018 29.0110321 C-17.72875585 28.52260173 -18.21686152 28.03417135 -18.71975827 27.53094006 C-22.50650698 23.00266609 -22.42349806 18.61658763 -22.3125 12.9140625 C-21.74397844 7.61259899 -19.22134216 5.16027505 -15.5 1.625 C-10.44221514 -0.72325726 -5.48314207 -0.97097307 0 0 Z " fill="#000000" transform="translate(102,160)"/>
</svg>
