<?xml version="1.0" encoding="UTF-8"?>
<svg version="1.1" xmlns="http://www.w3.org/2000/svg" width="512" height="512">
<path d="M0 0 C23.35640934 20.96507991 38.74162789 47.60755739 40.78515625 79.5 C41.17611834 89.20851536 40.82777118 98.83719378 39.78515625 108.5 C40.5121875 108.77972656 41.23921875 109.05945313 41.98828125 109.34765625 C54.37260721 114.28550929 64.80694419 120.6493568 74.78515625 129.5 C75.49414062 130.12519531 76.203125 130.75039062 76.93359375 131.39453125 C93.32452021 146.78127051 104.45798779 170.7688218 105.7265625 193.21875 C105.75556641 194.34796875 105.75556641 194.34796875 105.78515625 195.5 C105.83542969 196.3559375 105.88570313 197.211875 105.9375 198.09375 C106.84113352 224.40755811 97.14461238 249.07079866 79.6640625 268.5 C61.37159309 287.9953473 36.48559074 298.73174777 9.90592074 299.59333074 C6.67863056 299.63102028 3.45269786 299.63811631 0.22518921 299.63371277 C-1.0052988 299.63597833 -2.23578681 299.63824388 -3.50356233 299.64057809 C-6.89337198 299.64578684 -10.28312829 299.64656753 -13.67293811 299.64538372 C-17.33909145 299.64517863 -21.00523704 299.65070877 -24.67138672 299.65544128 C-31.84496303 299.66372545 -39.01853111 299.66649512 -46.19211181 299.66705366 C-52.02793102 299.66752994 -57.86374753 299.66959026 -63.69956589 299.67275429 C-80.27136874 299.68155523 -96.84316514 299.68617461 -113.41497035 299.68542381 C-114.30718541 299.68538386 -115.19940047 299.6853439 -116.11865234 299.68530273 C-117.01196602 299.68526185 -117.9052797 299.68522097 -118.82566349 299.68517885 C-133.29278263 299.68477267 -147.75987571 299.69433658 -162.22698732 299.7084411 C-177.1073863 299.72283322 -191.98777261 299.72970971 -206.86817873 299.72884732 C-215.21201261 299.7285163 -223.55581918 299.7312215 -231.89964676 299.74202538 C-239.00552016 299.75116783 -246.11135387 299.7532751 -253.21723063 299.74651595 C-256.83643631 299.74326938 -260.45556599 299.7431259 -264.07476425 299.7518692 C-300.48395175 299.83426302 -300.48395175 299.83426302 -314.46484375 294.75 C-315.21515869 294.48687012 -315.96547363 294.22374023 -316.73852539 293.95263672 C-337.26477263 286.56257151 -353.93212985 273.5387308 -366.21484375 255.5 C-366.76914062 254.68917969 -367.3234375 253.87835938 -367.89453125 253.04296875 C-381.64066914 231.56907976 -384.92503656 205.23467744 -380.21484375 180.5 C-374.13523458 154.26339787 -358.69487029 132.30899973 -336.09716797 117.65039062 C-319.99639533 107.81033347 -302.67885978 104.65790574 -284.21484375 102.5 C-284.00730469 101.64019531 -283.79976563 100.78039062 -283.5859375 99.89453125 C-280.14244568 86.68247266 -274.31785755 75.77053461 -265.21484375 65.5 C-264.68503906 64.88769531 -264.15523438 64.27539062 -263.609375 63.64453125 C-250.50904588 49.50911439 -229.43363066 39.33863797 -210.21484375 38.5 C-209.23773438 38.4484375 -208.260625 38.396875 -207.25390625 38.34375 C-197.31535319 38.07083779 -187.94753352 39.64615433 -178.21484375 41.5 C-177.74175781 40.55640625 -177.26867187 39.6128125 -176.78125 38.640625 C-162.52079805 10.73370262 -139.98730298 -10.3415858 -110.21484375 -20.5 C-108.50554687 -21.08394531 -108.50554687 -21.08394531 -106.76171875 -21.6796875 C-70.55543561 -33.00448383 -28.89044467 -24.6088392 0 0 Z " fill="#48A1FF" transform="translate(394.21484375,119.5)"/>
</svg>
