<?xml version="1.0" encoding="UTF-8"?>
<svg version="1.1" xmlns="http://www.w3.org/2000/svg" width="512" height="512">
<path d="M0 0 C1.63677463 0.0005649 3.27354976 0.00024602 4.9103241 -0.00088501 C9.33118271 -0.00145645 13.75193176 0.01026401 18.17276502 0.02426291 C22.80120103 0.0368051 27.42963983 0.03794351 32.05809021 0.04031372 C40.8126417 0.04651826 49.56714296 0.06291515 58.32167238 0.0830127 C68.29266377 0.1054037 78.26365761 0.11637317 88.2346679 0.12640357 C108.73646999 0.14728231 129.23822694 0.18243827 149.73999023 0.22705078 C149.74585648 1.43037552 149.75172272 2.63370026 149.75776672 3.87348938 C149.81512346 15.24577241 149.88795248 26.61786659 149.97570515 37.98995686 C150.02032228 43.83565693 150.05959745 49.68128869 150.08642578 55.52709961 C150.11254512 61.17473066 150.15300842 66.82209763 150.2031765 72.46956444 C150.21978696 74.6179493 150.23133731 76.76637978 150.23760414 78.91481972 C150.06014056 94.35559027 150.06014056 94.35559027 153.73999023 109.22705078 C154.02953079 109.95809525 154.31907135 110.68913971 154.61738586 111.44233704 C158.59224008 120.81252933 166.47624894 128.22045232 175.73999023 132.22705078 C186.0657629 136.25333994 196.82604846 135.70447368 207.72045898 135.73876953 C209.74499078 135.7556387 211.76951224 135.77379191 213.79402161 135.79316711 C219.08912934 135.84043029 224.38419517 135.87039235 229.67944336 135.89660645 C235.09619417 135.92653212 240.51280092 135.97302089 245.92944336 136.01806641 C256.53288326 136.10382975 267.13635302 136.17129431 277.73999023 136.22705078 C277.8313465 168.23645157 277.90208347 200.24581508 277.94425155 232.25531588 C277.94925406 236.03894453 277.95443138 239.82257291 277.9597168 243.60620117 C277.96076604 244.35941667 277.96181528 245.11263218 277.96289632 245.88867239 C277.98027604 258.06609945 278.01180023 270.24345057 278.04860142 282.42083266 C278.08607871 294.92673793 278.1082404 307.43260357 278.11634421 319.93856269 C278.12181796 327.64822983 278.1390723 335.35768225 278.1716561 343.06728325 C278.19540683 348.99057069 278.19779301 354.91374942 278.19242096 360.83708572 C278.19351754 363.25853734 278.20142239 365.67999741 278.21681213 368.10140038 C278.31945726 385.09090539 278.2229563 400.20405623 265.73999023 413.22705078 C255.00507273 421.67794329 244.5518974 423.379385 231.22897339 423.36749268 C230.18269181 423.3704638 229.13641024 423.37343492 228.05842316 423.37649608 C224.55887877 423.38515498 221.0593687 423.38668895 217.55981445 423.38818359 C215.04788643 423.39281376 212.5359591 423.39783869 210.02403259 423.40322876 C203.20354355 423.41633579 196.38306576 423.42283157 189.56256628 423.42723942 C185.29880112 423.4300076 181.03503821 423.43424599 176.77127457 423.43874359 C164.95175507 423.45093197 153.13223736 423.46123207 141.31271172 423.46461868 C140.17922181 423.46494803 140.17922181 423.46494803 139.02283312 423.46528403 C137.88672717 423.46561145 137.88672717 423.46561145 136.7276696 423.46594548 C135.1930395 423.46638894 133.6584094 423.4668355 132.1237793 423.46728516 C130.98195012 423.4676173 130.98195012 423.4676173 129.81705369 423.46795616 C117.49135449 423.47190152 105.16571451 423.48934947 92.84003817 423.51264468 C80.16666236 423.53640246 67.49331622 423.54882255 54.8199178 423.5499866 C47.71187113 423.55090089 40.60390163 423.55659082 33.49587631 423.57480621 C26.80637108 423.59188945 20.11703678 423.59342686 13.4275074 423.58466721 C10.97864579 423.58389853 8.52977621 423.588217 6.08093452 423.59812546 C-27.40962388 423.72563717 -27.40962388 423.72563717 -39.44750977 412.11767578 C-50.66765601 400.15501986 -51.56642636 387.67354926 -51.52070618 371.74906921 C-51.52373221 370.30999597 -51.52762395 368.87092433 -51.53229874 367.4318555 C-51.54252933 363.50455958 -51.54040961 359.57735546 -51.53611815 355.65005219 C-51.53364189 351.40384776 -51.54267624 347.15766492 -51.55015564 342.91146851 C-51.56287987 334.60303161 -51.56469916 326.29462706 -51.56235538 317.98618206 C-51.56056946 311.22979106 -51.56232773 304.47340986 -51.56657982 297.71702003 C-51.56717501 296.75395147 -51.5677702 295.79088291 -51.56838342 294.79863045 C-51.56959522 292.84189456 -51.57080936 290.88515867 -51.5720258 288.92842279 C-51.58289263 270.59379264 -51.58074294 252.25918091 -51.57464095 233.92454974 C-51.56947294 217.17021391 -51.58072572 200.41593626 -51.59973917 183.66161194 C-51.6191351 166.43754158 -51.62737047 149.21349872 -51.62361592 131.98941737 C-51.62170649 122.3277357 -51.6241662 112.66610351 -51.63833046 103.00443077 C-51.65026763 94.7789835 -51.65162302 86.55361618 -51.63954029 78.32816776 C-51.6336679 74.13602833 -51.63250652 69.94403498 -51.64454269 65.75190544 C-51.65545676 61.90572302 -51.65223324 58.05980767 -51.63828101 54.21363745 C-51.63441341 52.18152719 -51.64513585 50.14940482 -51.65657789 48.1173231 C-51.58463322 35.7700886 -50.46785947 23.92547696 -42.26000977 14.22705078 C-41.73407227 13.59154297 -41.20813477 12.95603516 -40.66625977 12.30126953 C-29.78641052 0.31803935 -15.11151154 -0.07327396 0 0 Z " fill="#4EA6FF" transform="translate(181.260009765625,11.77294921875)"/>
<path d="M0 0 C0.82947144 0.0047937 1.65894287 0.0095874 2.5135498 0.01452637 C4.54162102 0.02694164 6.56964976 0.04599411 8.59765625 0.06640625 C8.59825334 0.75474849 8.59885043 1.44309074 8.59946561 2.15229183 C8.63539218 42.98697911 8.69208122 83.8215919 8.7755772 124.65621096 C8.78559416 129.56385714 8.79543837 134.47150365 8.80517578 139.37915039 C8.80711715 140.35613738 8.80905853 141.33312437 8.81105873 142.33971702 C8.84204444 158.14023735 8.8590498 173.94074316 8.87085047 189.74128813 C8.88327981 205.96498988 8.9108214 222.18861572 8.95226932 238.41226953 C8.97735372 248.41586566 8.99077723 258.41933583 8.98908582 268.42296385 C8.98905597 275.29122754 9.00376065 282.15936331 9.02982053 289.02757711 C9.04440764 292.98486112 9.05272038 296.94188285 9.04345894 300.899189 C9.03510012 304.53255464 9.04552062 308.16539603 9.06999287 311.79868441 C9.07825921 313.71424648 9.0672187 315.62986304 9.0551579 317.54540497 C9.22774571 335.22120599 15.24492954 351.21541829 27.59765625 364.06640625 C44.77697772 379.13134969 62.2815105 381.51722223 84.24707031 381.4987793 C86.42615816 381.50780741 88.60524095 381.51813719 90.78431702 381.52966309 C96.66979593 381.55713585 102.55517823 381.56650439 108.44071293 381.57251716 C114.60266477 381.58192617 120.76454517 381.60813159 126.92645264 381.63252258 C138.5814336 381.67612179 150.23640065 381.70470917 161.89143825 381.72784597 C175.1659945 381.75493293 188.44046812 381.79884226 201.71497393 381.84413469 C229.00916222 381.93688675 256.30337313 382.00861068 283.59765625 382.06640625 C283.61871529 383.82994537 283.6337539 385.59355709 283.64624023 387.35717773 C283.65525864 388.33927719 283.66427704 389.32137665 283.67356873 390.33323669 C283.42769521 399.18572127 278.08365285 406.71663032 272.1171875 412.87109375 C261.96480038 421.71704966 250.71937329 423.37808347 237.68118286 423.32710266 C236.62754889 423.33092821 235.57391493 423.33475376 234.48835266 423.33869523 C230.98192944 423.34895755 227.47567204 423.34504596 223.96923828 423.34106445 C221.44539235 423.34541466 218.92154774 423.35059884 216.39770508 423.35655212 C210.26820561 423.3685333 204.13876658 423.37109758 198.00925769 423.36875186 C193.02389629 423.36696432 188.03854814 423.36872767 183.05318832 423.3729763 C182.3419647 423.37357149 181.63074107 423.37416668 180.89796522 423.37477991 C179.45282333 423.37599174 178.00768144 423.37720587 176.56253956 423.37842228 C163.02885425 423.38928316 149.49519389 423.38714219 135.96150719 423.38103744 C123.59975314 423.37586932 111.23807791 423.38712352 98.87633945 423.40613566 C86.16105794 423.42554053 73.44581367 423.43376543 60.73051727 423.4300124 C53.60075591 423.42810441 46.47106163 423.43054865 39.34131241 423.44472694 C32.63534581 423.45792838 25.92956208 423.45534487 19.22358704 423.44231606 C16.76785605 423.4399545 14.31211392 423.44266981 11.85639572 423.45093918 C8.49344833 423.46144369 5.13102597 423.45327588 1.76809692 423.44062805 C0.80600756 423.44800234 -0.15608181 423.45537662 -1.1473254 423.46297437 C-13.86112508 423.36299796 -23.48946399 420.01469814 -33.08984375 411.75390625 C-43.03060804 400.20112613 -44.86022463 389.34885644 -44.7900238 374.35391235 C-44.7942039 372.88937548 -44.79968511 371.42484185 -44.80634362 369.96031415 C-44.82072836 365.96264087 -44.81657548 361.96517497 -44.8091768 357.96749067 C-44.80443007 353.64563053 -44.81696826 349.32381428 -44.82719421 345.00196838 C-44.84435816 336.54546326 -44.84522722 328.08903251 -44.83998131 319.63251449 C-44.83593387 312.75645032 -44.83738998 305.88040807 -44.84272957 299.00434494 C-44.84347799 298.02433549 -44.84422641 297.04432603 -44.84499751 296.03461932 C-44.84652905 294.0434957 -44.8480674 292.05237208 -44.84961248 290.06124847 C-44.86332884 271.40426043 -44.85790592 252.74731438 -44.84642727 234.09032731 C-44.83649595 217.03783717 -44.84943536 199.98545556 -44.87336146 182.93298216 C-44.89776872 165.40493751 -44.90735632 147.87694338 -44.90070873 130.34888208 C-44.89722011 120.51563319 -44.89942499 110.68246773 -44.91695976 100.84923172 C-44.93170208 92.47844054 -44.93229067 84.10779156 -44.91488885 75.7370031 C-44.90639316 71.47001563 -44.9041941 67.20328196 -44.91954041 62.93630791 C-44.93344043 59.02287328 -44.92855685 55.10990863 -44.90930117 51.19650082 C-44.90555704 49.78812984 -44.9084169 48.37972073 -44.91891282 46.97138388 C-44.99734728 35.63210668 -43.69844201 24.18652907 -36.40234375 15.06640625 C-35.80421875 14.26460937 -35.20609375 13.4628125 -34.58984375 12.63671875 C-25.64994441 2.13233702 -13.06460565 -0.14455905 0 0 Z " fill="#51A8FF" transform="translate(97.40234375,76.93359375)"/>
<path d="M0 0 C1.11719279 0.95186693 2.23357171 1.90468914 3.34960938 2.85791016 C3.97138062 3.38840973 4.59315186 3.9189093 5.23376465 4.46548462 C7.40867405 6.35505836 9.46674362 8.33415684 11.5 10.375 C12.1909375 11.06335937 12.881875 11.75171875 13.59375 12.4609375 C15.55616042 14.53166278 17.43882036 16.63221943 19.30859375 18.78515625 C22.95519939 22.9800722 26.73830995 27.02972638 30.5625 31.0625 C31.974203 32.55706061 33.38565653 34.05185688 34.796875 35.546875 C35.50005859 36.29130859 36.20324219 37.03574219 36.92773438 37.80273438 C45.07361353 46.43997665 53.14656072 55.14270761 61.15625 63.90625 C64.41364898 67.45977616 67.70716688 70.97933843 71 74.5 C95 100.17502726 95 100.17502726 95 103 C84.98554452 103.06969739 74.97114733 103.12291119 64.95649815 103.15543652 C60.30562802 103.17105184 55.6549246 103.19221412 51.00415039 103.22631836 C46.51078097 103.25905987 42.01757128 103.27688406 37.52409172 103.28463173 C35.81498642 103.2901488 34.10588927 103.30092197 32.39685249 103.31719017 C12.23846312 103.5013391 12.23846312 103.5013391 5.125 97.625 C0.51321164 91.92808496 -0.4345652 88.34751926 -0.34057617 81.1706543 C-0.34101425 80.29210281 -0.34145233 79.41355133 -0.34190369 78.50837708 C-0.33981883 75.61342914 -0.31650201 72.71906513 -0.29296875 69.82421875 C-0.28737172 67.8135459 -0.28310213 65.80286896 -0.28010559 63.79219055 C-0.26866527 58.50671035 -0.23920494 53.22147846 -0.20599365 47.93609619 C-0.17527533 42.54011392 -0.16159648 37.14409143 -0.14648438 31.74804688 C-0.11433459 21.16525564 -0.06314793 10.58264849 0 0 Z " fill="#56ACFF" transform="translate(356,21)"/>
</svg>
