<?xml version="1.0" encoding="UTF-8"?>
<svg version="1.1" xmlns="http://www.w3.org/2000/svg" width="512" height="512">
<path d="M0 0 C1.09307447 -0.00843994 2.18614894 -0.01687988 3.31234688 -0.02557558 C4.50766582 -0.01956553 5.70298476 -0.01355549 6.93452549 -0.00736332 C8.20863256 -0.01274886 9.48273962 -0.01813439 10.79545599 -0.02368313 C14.32993991 -0.03815363 17.86419097 -0.03388811 21.39868772 -0.02651632 C25.21131518 -0.02179089 29.0238918 -0.03428894 32.83650303 -0.04453373 C40.30488203 -0.06173931 47.77317696 -0.06255811 55.24157064 -0.05732083 C61.31120322 -0.0532812 67.38081093 -0.05472021 73.45044231 -0.06006908 C74.74569669 -0.06119172 74.74569669 -0.06119172 76.06711783 -0.06233703 C77.82125978 -0.06386849 79.57540172 -0.06540684 81.32954366 -0.066952 C97.78352618 -0.08068337 114.23746117 -0.07523485 130.69144262 -0.06376678 C145.74765874 -0.05383346 160.80375199 -0.06677565 175.85994916 -0.09070098 C191.31645885 -0.11507755 206.77291127 -0.12470342 222.2294398 -0.11804825 C230.90840259 -0.11455285 239.58727086 -0.11680921 248.26621914 -0.13429928 C255.65434542 -0.14900324 263.04231062 -0.14968042 270.43043368 -0.13222837 C274.20033371 -0.12370105 277.96994577 -0.12161071 281.73983097 -0.13687992 C285.82555305 -0.15322359 289.91057696 -0.13861432 293.99629307 -0.12088871 C295.7859254 -0.13529622 295.7859254 -0.13529622 297.61171192 -0.14999479 C303.69213055 -0.09553101 307.89750045 -0.01406854 312.5289011 4.38031673 C315.39925638 8.0603141 315.89763168 10.72792151 315.86033726 15.34313107 C315.85842381 16.53877682 315.85651035 17.73442257 315.85453892 18.96630001 C315.83739338 20.26976879 315.82024784 21.57323757 315.80258274 22.91620541 C315.79522383 24.30956 315.78933089 25.702923 315.78479099 27.09628963 C315.77281162 30.0930761 315.75227743 33.08964007 315.72563457 36.08633137 C315.68532772 40.8320041 315.67535146 45.57743901 315.67158604 50.32326412 C315.6573629 63.81726528 315.62258601 77.31080003 315.5120554 90.804389 C315.45123356 98.26012621 315.4262825 105.71508966 315.4409942 113.17107087 C315.44719994 117.11244217 315.43496008 121.05181853 315.3781004 124.99282551 C315.32460835 128.70449779 315.31808914 132.4133781 315.34630299 136.12530041 C315.34934387 138.12266227 315.3029103 140.11991167 315.25456333 142.11669064 C315.35919692 149.21782338 316.29121196 152.92343739 321.3633585 158.05849361 C323.05525454 159.53416204 324.77528512 160.97855339 326.5289011 162.38031673 C327.80776153 163.48774706 329.08445756 164.59769323 330.3570261 165.71234798 C331.00220188 166.26616146 331.64737766 166.81997494 332.31210423 167.39057064 C336.88692906 171.49682862 341.17110651 175.9161711 345.50119114 180.27744198 C347.31625676 182.10543852 349.13457411 183.93014629 350.95370579 185.75409603 C355.46822026 190.28187817 359.97723447 194.81512481 364.48642063 199.34821224 C368.30835726 203.18998012 372.13240486 207.02962376 375.95919895 210.86655331 C377.73810365 212.65187218 379.51393506 214.44020812 381.28964329 216.22870541 C386.34235744 221.30371208 391.39038879 226.32613375 396.89144993 230.9227972 C405.33149334 238.4354048 405.33149334 238.4354048 405.65770227 243.30176139 C405.65949084 244.09364332 405.66127941 244.88552526 405.66312218 245.70140362 C405.66758002 246.61433516 405.67203786 247.52726671 405.6766308 248.46786284 C405.67635425 249.98212792 405.67635425 249.98212792 405.67607212 251.52698421 C405.67974881 252.59435039 405.6834255 253.66171656 405.6872136 254.76142716 C405.69828552 258.36193419 405.7021002 261.96241239 405.70590305 265.56293392 C405.71216502 268.13474273 405.71881158 270.70655062 405.72581577 273.27835751 C405.74559018 281.01361802 405.7556478 288.74887987 405.76454356 296.48415935 C405.76892502 300.1254824 405.77429221 303.76680398 405.77953243 307.40812588 C405.79654598 319.51054107 405.81104046 331.61295535 405.81828117 343.71538067 C405.82019112 346.85694791 405.82211144 349.99851515 405.82406712 353.14008236 C405.82455086 353.92091856 405.8250346 354.70175477 405.825533 355.50625268 C405.83383443 368.15710968 405.85917265 380.80787215 405.89164779 393.45868787 C405.92470672 406.44262455 405.94272889 419.42651318 405.94592541 432.41049218 C405.94809164 439.70229943 405.95685658 446.99396886 405.98238659 454.28573513 C406.00634399 461.1442561 406.00992658 468.00252508 405.99962521 474.86107922 C405.99912817 477.38060868 406.00549781 479.9001501 406.01918125 482.41964245 C406.03679869 485.85530037 406.02984319 489.29005711 406.01664829 492.72571468 C406.03310216 494.22659543 406.03310216 494.22659543 406.04988843 495.757797 C405.99702823 501.44591542 405.50945306 504.98187675 401.5289011 509.38031673 C397.27175768 512.65348806 393.42952462 512.80572163 388.24667549 512.76063347 C387.412024 512.76529339 386.5773725 512.76995331 385.71742854 512.77475443 C382.90805413 512.78674798 380.09915945 512.77729222 377.28978062 512.76799679 C375.26033671 512.77216779 373.23089514 512.77764402 371.20145792 512.7843166 C365.61471783 512.79882049 360.02812463 512.79451106 354.44137633 512.78714979 C348.4201474 512.78243264 342.39895091 512.79491505 336.37773228 512.8051672 C325.26039342 512.82139293 314.14309319 512.8237946 303.02574742 512.81886221 C292.75535848 512.81430774 282.48498703 512.81490082 272.21459866 512.82070255 C270.83776235 512.82145941 269.46092604 512.82221539 268.08408974 512.8229705 C266.00940635 512.82411567 263.93472297 512.82526555 261.8600396 512.82642974 C242.56756322 512.83713723 223.27509268 512.84185742 203.98261452 512.83395958 C203.25512866 512.83366241 202.5276428 512.83336523 201.77811192 512.83305905 C195.87014276 512.83061003 189.96217367 512.82799849 184.05420459 512.82537492 C161.0067613 512.8152716 137.95939087 512.82362849 114.91195774 512.84686947 C89.02605986 512.87293043 63.14020583 512.88579314 37.25429434 512.87868172 C34.49520267 512.87796564 31.73611099 512.87729126 28.97701931 512.87664127 C27.95795982 512.87638656 27.95795982 512.87638656 26.91831326 512.8761267 C16.6544753 512.87382189 6.39067801 512.88180935 -3.87315083 512.89493275 C-15.54319111 512.9098274 -27.2131526 512.91033411 -38.8831939 512.89286184 C-44.84034471 512.88432191 -50.7973131 512.88227515 -56.75445461 512.89751339 C-62.20418455 512.91128141 -67.65357444 512.90669937 -73.10328431 512.88727415 C-75.07832846 512.88348951 -77.05339934 512.88650638 -79.02841984 512.8968858 C-81.70703778 512.90996558 -84.38446634 512.8985533 -87.06303215 512.88088799 C-88.22125211 512.89536375 -88.22125211 512.89536375 -89.40287045 512.91013196 C-94.56915954 512.83986602 -97.4777547 511.6173969 -101.4710989 508.38031673 C-105.48505723 503.83650021 -104.8989567 498.63425135 -104.87223721 492.88634396 C-104.87903387 491.81782564 -104.88583054 490.74930732 -104.89283317 489.64840966 C-104.91184978 486.06179523 -104.9093654 482.47552098 -104.90688992 478.88886166 C-104.91586465 476.31985184 -104.92607222 473.75084608 -104.93742275 471.18184566 C-104.96233084 464.92400009 -104.97058675 458.66623929 -104.97225989 452.40834828 C-104.97368597 447.32080423 -104.97985322 442.23328812 -104.98936176 437.14575291 C-105.01577885 422.71737233 -105.02962037 408.28905866 -105.02737034 393.86065372 C-105.02725047 393.08298968 -105.0271306 392.30532565 -105.0270071 391.50409603 C-105.02682314 390.33617341 -105.02682314 390.33617341 -105.02663546 389.1446564 C-105.02541625 376.5276037 -105.05412097 363.91081966 -105.0964222 351.29384466 C-105.13952749 338.33464637 -105.16023198 325.37557907 -105.15764087 312.41630727 C-105.1566454 305.14231032 -105.16486653 297.868595 -105.19717503 290.59466267 C-105.2273681 283.75321341 -105.22647027 276.91236803 -105.20462513 270.07088947 C-105.201485 267.56025989 -105.20859186 265.04959341 -105.2267065 262.53902721 C-105.24984249 259.11039702 -105.23595364 255.68382589 -105.21281338 252.25524044 C-105.22824407 251.26252532 -105.24367476 250.26981019 -105.25957304 249.24701279 C-105.15537954 242.2574644 -103.23462847 238.43733412 -98.4710989 233.38031673 C-97.59385067 232.44339978 -97.59385067 232.44339978 -96.69888026 231.48755521 C-93.95747458 228.63162572 -91.06147186 226.01381357 -88.0414114 223.45844173 C-82.61166607 218.72157723 -77.57252687 213.59345156 -72.49880886 208.48319149 C-70.68374324 206.65519495 -68.86542589 204.83048718 -67.04629421 203.00653744 C-63.18505705 199.13395252 -59.32777894 195.25743939 -55.4710989 191.38031673 C-50.99686885 186.8823707 -46.52096821 182.38611327 -42.04080105 177.89408016 C-40.26189635 176.10876129 -38.48606494 174.32042535 -36.71035671 172.53192806 C-31.67126759 167.47033078 -26.63414857 162.45827324 -21.16348171 157.85614681 C-20.32575222 157.12561092 -20.32575222 157.12561092 -19.4710989 156.38031673 C-18.78634235 155.81093569 -18.10158581 155.24155464 -17.39607906 154.65491962 C-14.94221911 151.75537965 -14.97359289 150.27371479 -14.97903347 146.51084042 C-14.96683521 144.71076283 -14.96683521 144.71076283 -14.95439053 142.87432003 C-14.97136234 140.90429768 -14.97136234 140.90429768 -14.98867702 138.89447689 C-14.98649072 137.49476904 -14.98249332 136.09506302 -14.97682095 134.69536495 C-14.96825747 131.68270905 -14.97203739 128.67040944 -14.9852438 125.65777111 C-15.00558028 120.89218391 -14.99560304 116.12695584 -14.9809866 111.36136532 C-14.95194887 100.38273721 -14.96267847 89.4042145 -14.97368526 78.42556667 C-14.98336207 68.36826434 -14.98462662 58.31114929 -14.95380449 48.25387895 C-14.94043866 43.51861433 -14.94637981 38.78388815 -14.96716976 34.04865575 C-14.97616597 31.09942765 -14.96867241 28.15040636 -14.95675755 25.20119572 C-14.95361683 23.1865632 -14.9703981 21.17193032 -14.98780727 19.15737057 C-14.91195179 7.91089163 -14.91195179 7.91089163 -10.4710989 3.38031673 C-6.85130837 0.82873681 -4.41322496 0.0048182 0 0 Z " fill="#DBF0FF" transform="translate(105.47109889984131,-0.38031673431396484)"/>
<path d="M0 0 C0.33 0 0.66 0 1 0 C1 41.91 1 83.82 1 127 C-5 125 -5 125 -7.3125 123.375 C-11.2350725 121.36810244 -14.67923889 121.33412928 -19 122 C-22.64837196 123.30499459 -25.31295002 125.24646131 -27.9375 128.125 C-29.50688129 132.37156113 -29.85109403 136.54348401 -29 141 C-26.33770273 145.69108552 -23.91573139 148.06212196 -19.1796875 150.59375 C-18.61225327 150.90238983 -18.04481903 151.21102966 -17.46018982 151.52902222 C-15.60565986 152.53343174 -13.74074629 153.51660768 -11.875 154.5 C-10.57112649 155.20127699 -9.26799442 155.90393413 -7.96557617 156.60791016 C-4.63051844 158.40653949 -1.2868206 160.1884224 2.05926514 161.96643066 C6.18714518 164.16479908 10.29992931 166.39122571 14.41601562 168.61157227 C16.59463756 169.78591452 18.77432454 170.95828308 20.95507812 172.12866211 C27.75319837 175.77716095 34.51492736 179.48338277 41.24804688 183.25024414 C47.36248141 186.66432154 53.52268083 189.99045112 59.6875 193.3125 C67.51390614 197.53179812 75.27993728 201.83941655 83 206.25 C92.91509014 211.90771431 102.97319979 217.26802497 113.06994629 222.59133911 C122.04213594 227.32426885 130.93927655 232.15773029 139.75 237.1875 C143.16476456 239.12837172 146.58080937 241.06693537 150 243 C150.65919434 243.37286133 151.31838867 243.74572266 151.99755859 244.12988281 C153.63341287 245.04368338 155.28473358 245.92965583 156.9375 246.8125 C157.75089844 247.25207031 158.56429687 247.69164062 159.40234375 248.14453125 C165.58116717 250.17936182 169.72666311 249.37962544 175.44140625 246.61328125 C177.49119453 245.53067854 179.53112687 244.42927385 181.5625 243.3125 C182.66456787 242.72307617 183.76663574 242.13365234 184.90209961 241.52636719 C192.95130769 237.19550256 200.90851629 232.70141108 208.84008789 228.15942383 C217.1353249 223.429024 225.55419476 218.95330121 234 214.5 C244.20763394 209.11642068 254.32417975 203.61840138 264.33984375 197.8828125 C272.78060265 193.07146054 281.35046833 188.52006904 289.93624878 183.9750061 C299.3764183 178.97434928 308.71503991 173.82588479 317.98974609 168.52270508 C323.97105425 165.11313501 330.01293694 161.85601409 336.125 158.6875 C341.65455442 155.80544667 347.14358579 152.88224576 352.5 149.6875 C353.5003125 149.09324219 354.500625 148.49898437 355.53125 147.88671875 C358.96270556 145.26426142 360.68161536 142.80991627 361.43359375 138.53515625 C361.44252728 132.88023365 361.01376943 129.33064597 357 125 C352.92318902 122.15571327 349.25513165 121.43036931 344.3828125 121.5625 C340.74428773 122.23055701 337.94372794 123.9404902 334.84765625 125.90625 C333 127 333 127 331 127 C331 85.09 331 43.18 331 0 C348.19504276 14.73860808 363.98159318 30.88987396 379.9375 46.9375 C384.10889403 51.13269217 388.28204015 55.32611333 392.45941353 59.51535225 C394.10760991 61.16993654 395.75272384 62.82754135 397.39768982 64.4853363 C402.22831646 69.33902782 407.07663627 74.10857224 412.33082581 78.51075745 C420.80360512 86.07019825 420.80360512 86.07019825 421.12880117 90.92144465 C421.13058974 91.71332659 421.13237831 92.50520853 421.13422108 93.32108688 C421.13867892 94.23401843 421.14313676 95.14694997 421.14772969 96.08754611 C421.14745315 97.60181119 421.14745315 97.60181119 421.14717102 99.14666748 C421.15084771 100.21403365 421.1545244 101.28139983 421.1583125 102.38111043 C421.16938442 105.98161745 421.1731991 109.58209566 421.17700195 113.18261719 C421.18326392 115.75442599 421.18991048 118.32623388 421.19691467 120.89804077 C421.21668908 128.63330129 421.2267467 136.36856314 421.23564246 144.10384262 C421.24002392 147.74516566 421.24539111 151.38648725 421.25063133 155.02780914 C421.26764488 167.13022434 421.28213936 179.23263862 421.28938007 191.33506393 C421.29129002 194.47663118 421.29321034 197.61819841 421.29516602 200.75976562 C421.29564976 201.54060183 421.2961335 202.32143803 421.2966319 203.12593594 C421.30493333 215.77679294 421.33027155 228.42755542 421.36274669 241.07837114 C421.39580562 254.06230782 421.41382779 267.04619645 421.41702431 280.03017545 C421.41919054 287.3219827 421.42795548 294.61365213 421.45348549 301.9054184 C421.47744289 308.76393937 421.48102548 315.62220834 421.47072411 322.48076248 C421.47022706 325.00029194 421.47659671 327.51983336 421.49028015 330.03932571 C421.50789759 333.47498364 421.50094209 336.90974038 421.48774719 340.34539795 C421.50420106 341.8462787 421.50420106 341.8462787 421.52098733 343.37748027 C421.46812713 349.06559868 420.98055196 352.60156001 417 357 C412.74285658 360.27317132 408.90062352 360.42540489 403.71777439 360.38031673 C402.8831229 360.38497665 402.0484714 360.38963657 401.18852744 360.3944377 C398.37915303 360.40643125 395.57025835 360.39697548 392.76087952 360.38768005 C390.73143561 360.39185106 388.70199404 360.39732728 386.67255682 360.40399987 C381.08581673 360.41850376 375.49922353 360.41419433 369.91247523 360.40683305 C363.8912463 360.4021159 357.87004981 360.41459831 351.84883118 360.42485046 C340.73149232 360.44107619 329.61419209 360.44347787 318.49684632 360.43854547 C308.22645738 360.43399101 297.95608593 360.43458409 287.68569756 360.44038582 C286.30886125 360.44114268 284.93202494 360.44189866 283.55518864 360.44265376 C281.48050525 360.44379894 279.40582187 360.44494881 277.3311385 360.44611301 C258.03866212 360.4568205 238.74619158 360.46154069 219.45371342 360.45364285 C218.72622756 360.45334567 217.9987417 360.4530485 217.24921082 360.45274232 C211.34124166 360.4502933 205.43327257 360.44768176 199.52530349 360.44505819 C176.4778602 360.43495486 153.43048977 360.44331175 130.38305664 360.46655273 C104.49715875 360.4926137 78.61130473 360.50547641 52.72539324 360.49836498 C49.96630157 360.49764891 47.20720989 360.49697452 44.44811821 360.49632454 C43.42905871 360.49606983 43.42905871 360.49606983 42.38941216 360.49580997 C32.1255742 360.49350516 21.86177691 360.50149262 11.59794807 360.51461601 C-0.07209221 360.52951067 -11.7420537 360.53001738 -23.412095 360.5125451 C-29.36924581 360.50400517 -35.3262142 360.50195842 -41.28335571 360.51719666 C-46.73308565 360.53096468 -52.18247554 360.52638264 -57.63218541 360.50695742 C-59.60722956 360.50317278 -61.58230044 360.50618964 -63.55732094 360.51656907 C-66.23593888 360.52964884 -68.91336744 360.51823657 -71.59193325 360.50057125 C-72.36407989 360.51022176 -73.13622653 360.51987227 -73.93177155 360.52981523 C-79.09806064 360.45954929 -82.0066558 359.23708016 -86 356 C-90.01395833 351.45618347 -89.42785781 346.25393461 -89.40113831 340.50602722 C-89.40793498 339.43750891 -89.41473164 338.36899059 -89.42173427 337.26809293 C-89.44075088 333.6814785 -89.4382665 330.09520425 -89.43579102 326.50854492 C-89.44476575 323.93953511 -89.45497332 321.37052935 -89.46632385 318.80152893 C-89.49123194 312.54368335 -89.49948785 306.28592255 -89.50116099 300.02803155 C-89.50258707 294.9404875 -89.50875432 289.85297139 -89.51826286 284.76543617 C-89.54467995 270.33705559 -89.55852147 255.90874193 -89.55627144 241.48033699 C-89.55615157 240.70267295 -89.5560317 239.92500891 -89.5559082 239.1237793 C-89.55572424 237.95585668 -89.55572424 237.95585668 -89.55553656 236.76433966 C-89.55431735 224.14728696 -89.58302207 211.53050293 -89.6253233 198.91352793 C-89.66842859 185.95432964 -89.68913308 172.99526233 -89.68654197 160.03599054 C-89.6855465 152.76199358 -89.69376763 145.48827826 -89.72607613 138.21434593 C-89.7562692 131.37289667 -89.75537137 124.5320513 -89.73352623 117.69057274 C-89.7303861 115.17994316 -89.73749296 112.66927667 -89.7556076 110.15871048 C-89.77874359 106.73008029 -89.76485474 103.30350916 -89.74171448 99.87492371 C-89.75714517 98.88220858 -89.77257586 97.88949346 -89.78847414 96.86669606 C-89.68428064 89.87714767 -87.76352957 86.05701738 -83 81 C-82.12275177 80.06308304 -82.12275177 80.06308304 -81.22778136 79.10723847 C-78.48637568 76.25130899 -75.59037296 73.63349683 -72.5703125 71.078125 C-67.14056717 66.3412605 -62.10142797 61.21313483 -57.02770996 56.10287476 C-55.21264434 54.27487821 -53.39432699 52.45017044 -51.57519531 50.6262207 C-47.71395815 46.75363578 -43.85668004 42.87712266 -40 39 C-35.52576995 34.50205396 -31.04986931 30.00579653 -26.56970215 25.51376343 C-24.79079745 23.72844455 -23.01496604 21.94010861 -21.23925781 20.15161133 C-16.14926927 15.03889242 -11.05229404 9.98703733 -5.53979492 5.32324219 C-4.15598418 4.13404698 -2.85267778 2.85267778 -1.5625 1.5625 C-1.046875 1.046875 -0.53125 0.53125 0 0 Z " fill="#3E73FF" transform="translate(90,152)"/>
<path d="M0 0 C19.84075568 17.59172592 35.46738898 43.27828366 37.515625 70.23046875 C38.81073673 93.49370999 34.38361673 121.08192512 18.89453125 139.44921875 C10.07452712 149.2156651 -1.73322951 156.41875177 -15.09765625 157.53125 C-26.80320349 157.56833199 -35.69730309 156.37916364 -44.484375 148.23046875 C-46.59903394 145.98025475 -48.5838778 143.66368107 -50.484375 141.23046875 C-51.79148437 142.04451172 -51.79148437 142.04451172 -53.125 142.875 C-65.57913696 150.43939593 -77.63127359 154.28013374 -92.3984375 151.7265625 C-107.42127974 148.02374927 -119.56335613 138.94351017 -127.9609375 125.9375 C-138.19541311 107.7516241 -141.85396056 86.36342475 -136.38476562 66.04785156 C-131.58990019 49.98266289 -122.67989901 37.13137126 -108.109375 28.625 C-95.12025662 21.72453086 -83.70622186 19.51771896 -69.296875 22.98046875 C-68.63163818 23.13725098 -67.96640137 23.2940332 -67.28100586 23.45556641 C-63.73661512 24.37436833 -60.78083454 25.52961458 -57.62890625 27.41015625 C-56.07236328 28.31121094 -56.07236328 28.31121094 -54.484375 29.23046875 C-52.28529798 28.71443529 -52.28529798 28.71443529 -50.484375 27.23046875 C-45.73700615 24.65332566 -41.6110281 25.119227 -36.484375 26.23046875 C-32.27659567 27.91358048 -30.50500838 30.26781545 -28.33116341 34.20690346 C-26.86267239 37.71614784 -26.93869882 41.09830048 -26.98608398 44.85620117 C-26.97780579 46.1063073 -26.97780579 46.1063073 -26.96936035 47.38166809 C-26.96007943 49.17947732 -26.9599027 50.97735231 -26.96795464 52.77516747 C-26.98062476 55.62097776 -26.96926002 58.465824 -26.95191956 61.31159973 C-26.92527059 66.32255787 -26.91962226 71.33327798 -26.92102051 76.34429932 C-26.92325306 84.37496129 -26.90917707 92.40533014 -26.86543465 100.43587685 C-26.8555897 103.23899881 -26.86431447 106.04165982 -26.87413025 108.84477234 C-26.86798746 110.56082462 -26.8610762 112.27687439 -26.85327148 113.99291992 C-26.86099075 114.77170502 -26.86871002 115.55049011 -26.87666321 116.35287476 C-26.84620969 119.59313361 -26.69212552 121.86053123 -25.0894928 124.71430969 C-23.02892842 126.6606736 -21.97669361 126.74063244 -19.171875 126.66796875 C-13.03716839 126.34091654 -9.22427632 124.23887502 -4.921875 119.91796875 C5.5171758 107.3127573 7.68788969 87.24424249 6.72265625 71.37304688 C4.8640886 52.13862502 -7.33523244 33.61999566 -21.79296875 21.2890625 C-41.84037064 5.95527324 -65.79543161 -0.65610555 -90.84472656 2.53076172 C-112.79504796 6.44867948 -132.82111539 18.60152805 -146.0234375 36.58203125 C-151.56029101 44.56408267 -155.39696176 53.04739348 -158.484375 62.23046875 C-158.8246875 63.24109375 -159.165 64.25171875 -159.515625 65.29296875 C-165.61695172 86.98657486 -161.00930291 110.81600686 -150.359375 130.23046875 C-138.67252145 149.3383481 -120.65499099 163.34418573 -99.015625 169.50390625 C-94.02775511 170.53017151 -89.00760441 171.05101953 -83.92651367 171.37255859 C-77.22845146 171.89604392 -71.73807831 173.86119091 -67.046875 178.79296875 C-64.35892085 182.98617723 -64.00104956 186.31666013 -64.484375 191.23046875 C-66.30772629 195.51377242 -68.22549691 198.43710385 -72.19921875 200.94140625 C-86.88516626 206.70402537 -107.78486795 199.97604912 -121.484375 194.23046875 C-151.23945848 180.83845448 -172.65515394 158.71129839 -184.984375 128.5625 C-195.90647274 99.27437482 -195.21605102 67.60078476 -182.49121094 38.99804688 C-168.90135599 10.14339688 -145.13078301 -11.6511222 -115.18701172 -22.61035156 C-75.20266598 -36.20310972 -32.00602506 -27.18640433 0 0 Z " fill="#15A7FF" transform="translate(333.484375,90.76953125)"/>
<path d="M0 0 C7.82398136 4.28484304 12.14842809 10.18873458 15.20703125 18.4765625 C18.67462267 31.82782767 16.8423425 46.36633273 10.08203125 58.3515625 C6.69102007 63.31170618 2.08766303 68.05801857 -3.66796875 69.9765625 C-10.52015032 70.71898359 -16.04021262 70.11530815 -21.66796875 65.9765625 C-28.45033064 59.97134624 -32.74268405 51.8006981 -34.66796875 42.9765625 C-35.4594285 29.88503975 -35.04087322 18.41752315 -26.44921875 7.765625 C-19.26713491 0.5520408 -10.01567297 -3.84202975 0 0 Z " fill="#E8F5FF" transform="translate(259.66796875,143.0234375)"/>
</svg>
