<?xml version="1.0" encoding="UTF-8"?>
<svg version="1.1" xmlns="http://www.w3.org/2000/svg" width="512" height="512">
<path d="M0 0 C1.35263124 -0.00570943 2.70525768 -0.0126759 4.05787659 -0.02079773 C7.7172448 -0.03868634 11.37637263 -0.03756832 15.03577137 -0.03185534 C18.09951288 -0.02875563 21.16320874 -0.03486499 24.22694373 -0.04089409 C31.46171885 -0.05492512 38.69637588 -0.05339139 45.93115234 -0.04199219 C53.37193547 -0.03052675 60.81235748 -0.04456315 68.253093 -0.07138866 C74.66017277 -0.09361495 81.06713978 -0.10016708 87.47425532 -0.09431225 C91.2925282 -0.09095622 95.11056998 -0.09326616 98.92881012 -0.11056328 C102.52411872 -0.1261402 106.11889725 -0.1219596 109.71418571 -0.10325813 C111.64551009 -0.09787142 113.57685888 -0.11200645 115.50813293 -0.12695312 C128.05223643 -0.02192732 138.88645181 3.72813748 147.89746094 12.66186523 C153.9059025 19.21466133 159.35447096 26.24150368 164.83886719 33.23217773 C172.38178491 42.6866568 179.22459115 50.41916167 191.62011719 52.40405273 C193.98819642 52.49777533 196.35864838 52.53727394 198.72857666 52.54208374 C199.78514155 52.54631566 199.78514155 52.54631566 200.86305118 52.55063307 C203.21730578 52.55894902 205.57151318 52.56031474 207.92578125 52.56176758 C209.61632926 52.56643804 211.30687602 52.57158199 212.99742126 52.5771637 C216.63580456 52.58843054 220.27417973 52.59687156 223.91257477 52.60328293 C229.67032404 52.61397957 235.42801489 52.63422912 241.18572998 52.65640259 C257.55787478 52.71827012 273.93001598 52.77231891 290.30224609 52.80541992 C299.34621118 52.82378488 308.3900782 52.85274358 317.43397117 52.89342463 C322.21683179 52.91446144 326.99956902 52.92994721 331.78247833 52.9322319 C336.28381907 52.93438469 340.78490284 52.95031829 345.28616524 52.97662163 C346.93363336 52.9837918 348.5811327 52.98592671 350.2286129 52.98251915 C361.81416001 52.96239237 371.23016952 53.60167477 380.54199219 61.31811523 C388.42477641 69.23053399 390.84845421 78.61975522 390.84671021 89.47631836 C390.83638763 90.4630957 390.82606506 91.44987305 390.81542969 92.46655273 C390.81118484 94.01439453 390.81118484 94.01439453 390.80685425 95.59350586 C390.79572971 98.86381005 390.77063945 102.13383241 390.74511719 105.40405273 C390.7350774 107.63191334 390.7259533 109.85977827 390.71777344 112.08764648 C390.69581574 117.52654345 390.66241579 122.96527795 390.62011719 128.40405273 C391.21622803 128.39294968 391.81233887 128.38184662 392.42651367 128.3704071 C398.65609689 128.25940281 404.88539713 128.18421578 411.11572266 128.12939453 C413.43777894 128.10432008 415.75975683 128.07025181 418.08154297 128.02685547 C421.4279316 127.96589468 424.77327271 127.93777124 428.12011719 127.91577148 C429.66590454 127.87706184 429.66590454 127.87706184 431.24291992 127.83757019 C438.82452937 127.83464975 443.63031437 129.61842311 449.14111328 134.84721375 C453.65326688 139.82702733 454.85588398 144.58162976 454.78549194 151.18212891 C454.49671223 155.06208345 453.40562767 158.65797025 452.29589844 162.37280273 C451.91638535 163.69037315 451.91638535 163.69037315 451.52920532 165.03456116 C450.67385678 167.99411694 449.80320534 170.94894702 448.93261719 173.90405273 C448.30678626 176.05735225 447.68189751 178.21092577 447.05786133 180.36474609 C445.6771766 185.12177608 444.28939188 189.87666171 442.89648438 194.63012695 C440.71567068 202.07249425 438.54753664 209.5185092 436.38165283 216.96523285 C432.4289011 230.55432785 428.46267924 244.13945487 424.49105835 257.72304535 C421.16192376 269.11066834 417.84636375 280.5021711 414.53990746 291.89639854 C413.11213179 296.81530158 411.68247322 301.73365777 410.25285053 306.65202427 C409.11577583 310.56461568 407.97995432 314.47756145 406.84713745 318.39138794 C398.78103256 346.25408654 398.78103256 346.25408654 395.20605469 357.11499023 C394.86852928 358.15011246 394.86852928 358.15011246 394.52418518 359.20614624 C391.07118705 369.41444552 384.9850821 376.7542333 375.43261719 381.71655273 C370.65377423 384.02324475 366.59834703 384.52990117 361.28652096 384.53827381 C359.97558371 384.54273166 358.66464647 384.5471895 357.31398386 384.55178243 C355.85555771 384.55169313 354.39713157 384.55150328 352.93870544 384.55122375 C351.39216697 384.55452314 349.84562935 384.55824887 348.29909283 384.56236523 C344.04237392 384.57238491 339.78566911 384.57610198 335.52894008 384.57875454 C330.94047565 384.58265771 326.35202237 384.59223607 321.76356506 384.60096741 C310.67869255 384.62073189 299.59381912 384.6307982 288.5089334 384.6396952 C283.28878745 384.64407829 278.06864253 384.64944506 272.84849739 384.65468407 C255.49519658 384.67169665 238.1418964 384.68619066 220.78858852 384.69343281 C216.2850844 384.6953427 211.78158028 384.69726303 207.27807617 384.69921875 C206.15875244 384.69970249 205.03942871 384.70018623 203.88618607 384.70068463 C185.75523328 384.70898433 167.62434648 384.73432012 149.4934225 384.76679943 C130.87854715 384.79987377 112.26370532 384.81788193 93.64880043 384.82107705 C83.19734325 384.82324184 72.7459823 384.83198598 62.29455376 384.85753822 C53.39324982 384.87925035 44.49206547 384.88729311 35.59073805 384.87757144 C31.05063161 384.87302819 26.51077188 384.87491443 21.97069931 384.89433289 C17.80977515 384.91197563 13.64927749 384.91095794 9.48834873 384.89543559 C7.98760437 384.8930612 6.48683038 384.89737435 4.98613124 384.90926424 C-7.90025052 385.00499127 -17.67892939 383.06950287 -27.14941406 373.90014648 C-36.36468927 363.58743045 -37.68138118 353.50216947 -37.64057922 340.13308716 C-37.64360304 338.78862257 -37.64749368 337.4441597 -37.65217179 336.09969985 C-37.66243083 332.42013785 -37.66027534 328.74067352 -37.6559912 325.06110358 C-37.65352016 321.08690837 -37.66254282 317.11273644 -37.67002869 313.1385498 C-37.68276721 305.35843445 -37.68457043 297.57835362 -37.68222842 289.79822959 C-37.68044416 283.47317775 -37.68219723 277.14813638 -37.68645287 270.82308578 C-37.68704805 269.92228917 -37.68764324 269.02149255 -37.68825647 268.09339907 C-37.68946824 266.26332665 -37.69068238 264.43325424 -37.69189885 262.60318182 C-37.70277112 245.44708836 -37.70061337 228.29101456 -37.694514 211.13491999 C-37.6893451 195.44789973 -37.70060014 179.76094158 -37.71961222 164.07393362 C-37.7389948 147.95738932 -37.74724588 131.84087441 -37.74348897 115.72431839 C-37.74157756 106.67975882 -37.74405857 97.63525211 -37.75820351 88.59070206 C-37.77012361 80.8909763 -37.77151512 73.19133594 -37.75941334 65.49160899 C-37.75352909 61.56529239 -37.75241261 57.63913193 -37.76441574 53.71282578 C-37.77528943 50.11406609 -37.77215377 46.51559264 -37.75815406 42.91684626 C-37.75426536 41.00789321 -37.7650421 39.09892738 -37.77645093 37.19000447 C-37.70882959 26.39388834 -36.02051962 17.40607102 -28.37988281 9.40405273 C-19.38747553 1.34378523 -11.8414315 -0.04239702 0 0 Z " fill="#4193FE" transform="translate(47.3798828125,63.595947265625)"/>
<path d="M0 0 C1.35263124 -0.00570943 2.70525768 -0.0126759 4.05787659 -0.02079773 C7.7172448 -0.03868634 11.37637263 -0.03756832 15.03577137 -0.03185534 C18.09951288 -0.02875563 21.16320874 -0.03486499 24.22694373 -0.04089409 C31.46171885 -0.05492512 38.69637588 -0.05339139 45.93115234 -0.04199219 C53.37193547 -0.03052675 60.81235748 -0.04456315 68.253093 -0.07138866 C74.66017277 -0.09361495 81.06713978 -0.10016708 87.47425532 -0.09431225 C91.2925282 -0.09095622 95.11056998 -0.09326616 98.92881012 -0.11056328 C102.52411872 -0.1261402 106.11889725 -0.1219596 109.71418571 -0.10325813 C111.64551009 -0.09787142 113.57685888 -0.11200645 115.50813293 -0.12695312 C128.05223643 -0.02192732 138.88645181 3.72813748 147.89746094 12.66186523 C153.9059025 19.21466133 159.35447096 26.24150368 164.83886719 33.23217773 C172.38178491 42.6866568 179.22459115 50.41916167 191.62011719 52.40405273 C193.98819642 52.49777533 196.35864838 52.53727394 198.72857666 52.54208374 C199.78514155 52.54631566 199.78514155 52.54631566 200.86305118 52.55063307 C203.21730578 52.55894902 205.57151318 52.56031474 207.92578125 52.56176758 C209.61632926 52.56643804 211.30687602 52.57158199 212.99742126 52.5771637 C216.63580456 52.58843054 220.27417973 52.59687156 223.91257477 52.60328293 C229.67032404 52.61397957 235.42801489 52.63422912 241.18572998 52.65640259 C257.55787478 52.71827012 273.93001598 52.77231891 290.30224609 52.80541992 C299.34621118 52.82378488 308.3900782 52.85274358 317.43397117 52.89342463 C322.21683179 52.91446144 326.99956902 52.92994721 331.78247833 52.9322319 C336.28381907 52.93438469 340.78490284 52.95031829 345.28616524 52.97662163 C346.93363336 52.9837918 348.5811327 52.98592671 350.2286129 52.98251915 C361.81416001 52.96239237 371.23016952 53.60167477 380.54199219 61.31811523 C388.42477641 69.23053399 390.84845421 78.61975522 390.84671021 89.47631836 C390.83638763 90.4630957 390.82606506 91.44987305 390.81542969 92.46655273 C390.81118484 94.01439453 390.81118484 94.01439453 390.80685425 95.59350586 C390.79572971 98.86381005 390.77063945 102.13383241 390.74511719 105.40405273 C390.7350774 107.63191334 390.7259533 109.85977827 390.71777344 112.08764648 C390.69581574 117.52654345 390.66241579 122.96527795 390.62011719 128.40405273 C389.7731584 128.40437879 389.7731584 128.40437879 388.90908933 128.40471143 C355.41460912 128.41823888 321.92027185 128.45777671 288.42587043 128.53090836 C284.40061323 128.53967469 280.3753556 128.54822457 276.35009766 128.55664062 C275.14810618 128.55915922 275.14810618 128.55915922 273.92183205 128.56172869 C260.96131348 128.58836982 248.00083914 128.5974917 235.04029599 128.60009416 C221.73315032 128.60315788 208.42613215 128.62515291 195.11904407 128.66457731 C186.91343468 128.68829543 178.7080801 128.69739667 170.5024412 128.68756584 C164.86901667 128.68223388 159.23581964 128.69535616 153.60245988 128.72271564 C150.35630261 128.73794479 147.1107551 128.74255647 143.86456871 128.73064995 C140.33435324 128.71898652 136.80555735 128.73821246 133.27545166 128.76481628 C131.75788517 128.7488064 131.75788517 128.7488064 130.20966077 128.73247308 C120.12232914 128.87354533 110.66891007 132.32497124 103.35839844 139.42358398 C96.52983268 147.20354542 93.95017465 156.08060412 91.31494141 165.86547852 C90.02331435 170.58450103 88.62422344 175.27251316 87.24511719 179.96655273 C86.64304129 182.0302051 86.04148432 184.09400893 85.44042969 186.15795898 C83.66796163 192.24027316 81.89417671 198.32220259 80.12011719 204.40405273 C79.5367776 206.40405091 78.95344427 208.40405091 78.37011719 210.40405273 C67.87011719 246.40405273 57.37011719 282.40405273 46.87011719 318.40405273 C46.58128662 319.3951001 46.29245605 320.38614746 45.99487305 321.40722656 C45.41402988 323.39713722 44.83152342 325.38656317 44.24731445 327.37548828 C42.73652757 332.52703079 41.25989802 337.68508368 39.83496094 342.86108398 C31.75553637 371.96429224 31.75553637 371.96429224 18.02636719 379.90405273 C7.94260636 385.12388187 -3.1814408 386.42713451 -14.19238281 382.96655273 C-23.80488837 378.88982047 -31.23157543 370.91993352 -35.37988281 361.40405273 C-37.63259711 354.28661837 -37.66324795 347.56067299 -37.64057922 340.13308716 C-37.64360304 338.78862257 -37.64749368 337.4441597 -37.65217179 336.09969985 C-37.66243083 332.42013785 -37.66027534 328.74067352 -37.6559912 325.06110358 C-37.65352016 321.08690837 -37.66254282 317.11273644 -37.67002869 313.1385498 C-37.68276721 305.35843445 -37.68457043 297.57835362 -37.68222842 289.79822959 C-37.68044416 283.47317775 -37.68219723 277.14813638 -37.68645287 270.82308578 C-37.68704805 269.92228917 -37.68764324 269.02149255 -37.68825647 268.09339907 C-37.68946824 266.26332665 -37.69068238 264.43325424 -37.69189885 262.60318182 C-37.70277112 245.44708836 -37.70061337 228.29101456 -37.694514 211.13491999 C-37.6893451 195.44789973 -37.70060014 179.76094158 -37.71961222 164.07393362 C-37.7389948 147.95738932 -37.74724588 131.84087441 -37.74348897 115.72431839 C-37.74157756 106.67975882 -37.74405857 97.63525211 -37.75820351 88.59070206 C-37.77012361 80.8909763 -37.77151512 73.19133594 -37.75941334 65.49160899 C-37.75352909 61.56529239 -37.75241261 57.63913193 -37.76441574 53.71282578 C-37.77528943 50.11406609 -37.77215377 46.51559264 -37.75815406 42.91684626 C-37.75426536 41.00789321 -37.7650421 39.09892738 -37.77645093 37.19000447 C-37.70882959 26.39388834 -36.02051962 17.40607102 -28.37988281 9.40405273 C-19.38747553 1.34378523 -11.8414315 -0.04239702 0 0 Z " fill="#366CFB" transform="translate(47.3798828125,63.595947265625)"/>
</svg>
