<?xml version="1.0" encoding="UTF-8"?>
<svg version="1.1" xmlns="http://www.w3.org/2000/svg" width="512" height="512">
<path d="M0 0 C1.04046579 -0.00384115 2.08093157 -0.00768229 3.15292662 -0.01163983 C4.29463877 -0.01077335 5.43635092 -0.00990687 6.61266041 -0.00901413 C7.82662662 -0.01198525 9.04059283 -0.01495637 10.29134589 -0.01801753 C13.6626176 -0.02519824 17.03383835 -0.02787688 20.40511405 -0.028615 C24.04056581 -0.03046626 27.67600654 -0.03801401 31.31145191 -0.04475021 C39.26197748 -0.05833163 47.21249801 -0.06435806 55.16303325 -0.06876087 C60.12811404 -0.07152383 65.09319289 -0.0757613 70.05827236 -0.08026505 C83.80695155 -0.09245786 97.55562918 -0.10275689 111.30431366 -0.10614014 C112.62422908 -0.10646949 112.62422908 -0.10646949 113.97080945 -0.10680549 C115.2938739 -0.10713291 115.2938739 -0.10713291 116.64366692 -0.10746694 C118.43100496 -0.1079104 120.218343 -0.10835696 122.00568104 -0.10880661 C122.89226144 -0.10902804 123.77884184 -0.10924947 124.69228832 -0.10947761 C139.05459917 -0.11342471 153.41685926 -0.13087599 167.77915051 -0.15416613 C182.52711446 -0.17788849 197.27505296 -0.1903424 212.0230363 -0.19150805 C220.30247818 -0.19242436 228.58185393 -0.19816541 236.86127758 -0.21632767 C243.9122461 -0.23174064 250.96312806 -0.2368421 258.01411023 -0.22858956 C261.61016642 -0.22468717 265.20604835 -0.22559237 268.80208302 -0.23964691 C272.7049187 -0.2547607 276.60751016 -0.24650702 280.51036549 -0.23606491 C281.64092403 -0.24412132 282.77148257 -0.25217772 283.93630046 -0.26047826 C292.94898957 -0.2041024 300.60518046 1.07486925 307.3750658 7.38924026 C313.03572634 13.94678468 314.03246908 21.23260677 314.00760651 29.64002228 C314.00935954 30.39104467 314.01111258 31.14206707 314.01291874 31.91584772 C314.01758272 34.44062729 314.01511221 36.96534938 314.01268482 39.49013138 C314.0145526 41.31531946 314.01685317 43.14050714 314.01955014 44.96569419 C314.02567876 49.98792367 314.0255333 55.01013653 314.02435577 60.0323689 C314.02415203 65.44627595 314.02966798 70.86017763 314.03441334 76.27408218 C314.0427264 86.8837282 314.04546848 97.49336866 314.04602572 108.10301766 C314.04650059 116.72601135 314.04855391 125.3490032 314.05172634 133.97199631 C314.0605349 158.41139061 314.06514543 182.85078052 314.06439587 207.29017642 C314.06433593 209.26724769 314.06433593 209.26724769 314.06427479 211.2842598 C314.06423391 212.60391384 314.06419303 213.92356788 314.06415091 215.28321144 C314.06364932 236.67132393 314.07331372 258.05941846 314.08741315 279.44752589 C314.10177092 301.4004798 314.10868366 323.35342512 314.10781938 345.30638385 C314.10748719 357.63456004 314.11024385 369.96271777 314.12099743 382.29088974 C314.13009456 392.78750098 314.13228417 403.2840854 314.12548801 413.78069887 C314.12221876 419.1366721 314.12218073 424.49259387 314.13084126 429.84856224 C314.1386893 434.75248597 314.13729215 439.65631726 314.12855712 444.56023869 C314.12701839 446.33345473 314.12885232 448.10667761 314.1344172 449.87988558 C314.20318751 473.34918131 314.20318751 473.34918131 305.87897205 482.13142776 C299.29803339 487.56785536 292.77311355 488.50424377 284.56647205 487.81111526 C277.18202939 485.9435382 271.46329141 481.52642463 265.62897205 476.81892776 C264.04821905 475.56601128 262.4661374 474.31476965 260.8828783 473.06502151 C260.06577381 472.41904007 259.24866932 471.77305862 258.40680408 471.10750198 C254.17576809 467.79998746 249.87158334 464.59156201 245.56647205 461.38142776 C239.14150197 456.58202319 232.74898425 451.74895968 226.40240955 446.84627151 C214.99405606 438.04118919 203.51135228 429.33140118 191.96857166 420.70344925 C187.39376018 417.27936074 182.84251718 413.82542533 178.30084705 410.35750198 C176.52665491 409.00383747 174.75062465 407.65257855 172.97272205 406.30379105 C168.37149795 402.81167049 163.80056197 399.28858201 159.26959705 395.70564651 C157.47276478 394.30585208 155.67589126 392.90611059 153.87897205 391.50642776 C153.04849354 390.83635696 152.21801502 390.16628616 151.36237049 389.47591019 C150.58409901 388.87496536 149.80582752 388.27402054 149.00397205 387.65486526 C147.98690174 386.84928177 147.98690174 386.84928177 146.94928455 386.02742386 C144.83152711 384.85375768 144.83152711 384.85375768 142.2969408 385.84627151 C139.20625665 387.48897763 136.57488329 389.5487964 133.87897205 391.75642776 C132.64327889 392.74761646 131.40620822 393.73708941 130.16803455 394.72517776 C129.49030994 395.26658401 128.81258533 395.80799026 128.11432362 396.36580276 C123.8701677 399.71811115 119.55956352 402.9836584 115.25397205 406.25642776 C114.33873768 406.95268265 113.4235033 407.64893753 112.48053455 408.36629105 C107.05190855 412.49169379 101.60668747 416.59343467 96.14459705 420.67439651 C91.6180078 424.06933845 87.12703989 427.51135969 82.62897205 430.94392776 C76.39779085 435.69860905 70.15705958 440.43883844 63.87897205 445.13142776 C57.79199004 449.68287084 51.73604425 454.27382103 45.69147205 458.88142776 C44.81531239 459.54819534 43.93915272 460.21496292 43.03644276 460.90193558 C38.39335416 464.43847989 33.76399353 467.99138048 29.15240955 471.56892776 C28.21679188 472.29112503 27.2811742 473.0133223 26.31720448 473.75740433 C24.53441885 475.13401167 22.75566337 476.51586048 20.98175526 477.9038887 C13.13435266 483.94812117 6.07276587 488.50155038 -4.12102795 488.13142776 C-11.04275318 487.05540471 -16.56249597 484.52649885 -21.12102795 479.13142776 C-25.5885001 472.30763646 -26.27302094 465.54638865 -26.25245571 457.50257874 C-26.25553466 456.37476377 -26.25553466 456.37476377 -26.25867581 455.22416466 C-26.26433425 452.70249283 -26.26289 450.18087582 -26.26146984 447.65919876 C-26.26405413 445.83386016 -26.26706747 444.00852212 -26.27047324 442.18318486 C-26.27853883 437.16514706 -26.28033257 432.14712357 -26.28107071 427.12908006 C-26.282922 421.71789685 -26.29046967 416.30672106 -26.29720592 410.89554214 C-26.31078611 399.06295975 -26.31681333 387.23038075 -26.32121658 375.39779186 C-26.32397924 368.01016734 -26.32821661 360.62254414 -26.33272076 353.2349205 C-26.34491245 332.78217399 -26.35521233 312.32942853 -26.35859585 291.87667847 C-26.35881541 290.56775303 -26.35903498 289.25882759 -26.3592612 287.91023774 C-26.35947948 286.59817898 -26.35969776 285.28612021 -26.35992265 283.93430209 C-26.36036611 281.27556403 -26.36081268 278.61682598 -26.36126232 275.95808792 C-26.36148375 274.63926169 -26.36170518 273.32043546 -26.36193332 271.9616448 C-26.36574931 250.58719581 -26.38333936 229.21278299 -26.40662184 207.83834693 C-26.43033065 185.89552654 -26.44279747 163.95272325 -26.44396377 142.00988984 C-26.44488073 129.68895121 -26.45063857 117.36805699 -26.46878338 105.04713058 C-26.4841779 94.55678567 -26.48930859 84.0664989 -26.48104528 73.57614484 C-26.47713665 68.22406624 -26.47807888 62.87210474 -26.49210262 57.52004051 C-26.50482837 52.61853462 -26.5036556 47.71723401 -26.49151191 42.81572846 C-26.48955264 41.0445418 -26.49264395 39.27334066 -26.50135627 37.50217435 C-26.60601749 14.78295037 -26.60601749 14.78295037 -18.8671217 6.60017776 C-13.3425356 1.95309863 -7.12849065 0.00988551 0 0 Z " fill="#4BA4FF" transform="translate(112.12102794647217,11.868572235107422)"/>
</svg>
