<?xml version="1.0" encoding="UTF-8"?>
<svg version="1.1" xmlns="http://www.w3.org/2000/svg" width="512" height="512">
<path d="M0 0 C1.51207031 -0.02513672 1.51207031 -0.02513672 3.0546875 -0.05078125 C9.49155392 0.71083272 13.62826976 4.37748006 18.03411865 8.84066772 C18.87886179 9.6783909 18.87886179 9.6783909 19.74067044 10.53303778 C21.61782394 12.3982661 23.48411943 14.27398459 25.35058594 16.14990234 C26.69734187 17.49259154 28.04473482 18.83464203 29.39271545 20.17610168 C33.04611567 23.81583611 36.68997547 27.46498349 40.33178616 31.11630964 C44.1446989 34.93682116 47.96492973 38.75000373 51.78399658 42.56436157 C58.19490218 48.96981094 64.59945992 55.38155627 71.00048828 61.796875 C78.40212876 69.21484863 85.81452423 76.62194349 93.23258567 84.02349317 C99.60169702 90.37899427 105.96494796 96.7403185 112.32333016 103.10655367 C116.1208198 106.90872144 119.92030981 110.70883062 123.72509003 114.50370407 C127.30071613 118.07066934 130.86893331 121.64488374 134.43154716 125.22484398 C135.74071652 126.53798256 137.05245012 127.84857033 138.36690712 129.15641594 C140.15956834 130.94088934 141.94274839 132.73433066 143.72381592 134.53036499 C144.24695743 135.04681434 144.77009895 135.56326369 145.30909324 136.09536302 C149.89699299 140.75842867 151.41821499 144.64914929 151.5625 151.125 C151.45298504 157.06071069 150.16780518 160.94332253 146.125 165.3125 C141.87895122 168.62441805 138.32566099 170.44380521 132.9375 170.625 C132.22207031 170.66238281 131.50664062 170.69976562 130.76953125 170.73828125 C123.264012 169.52985939 118.17642942 164.92007666 113.125 159.5625 C112.54105469 158.96050781 111.95710938 158.35851562 111.35546875 157.73828125 C109.93585328 156.27212101 108.52903581 154.79358656 107.125 153.3125 C103.03593377 154.98745247 100.03294973 157.86708722 96.80427551 160.79382324 C96.17269632 161.36089823 95.54111712 161.92797322 94.89039916 162.5122323 C92.77195205 164.41871122 90.66059268 166.33282427 88.55004883 168.24804688 C87.80919603 168.91797543 87.06834324 169.58790398 86.30504036 170.27813339 C71.53069584 183.64675303 57.0274003 197.29804071 42.61096668 211.05098724 C33.44794541 219.78159801 24.22184083 228.41157411 14.77661133 236.83691406 C-34.64616791 278.85005904 -34.64616791 278.85005904 -56.01121533 337.37395954 C-56.86152109 353.789309 -55.74870635 370.4247755 -53.3423481 386.67724609 C-51.97483249 395.96214391 -51.58775683 402.22285779 -56.19921875 410.765625 C-60.52321726 416.46487804 -65.65735151 420.97589843 -72.875 422.3125 C-74.74542448 422.47979603 -76.62269837 422.57794363 -78.5 422.625 C-79.46164062 422.66238281 -80.42328125 422.69976562 -81.4140625 422.73828125 C-90.2637085 421.64955505 -96.45119131 417.62620897 -102.52783203 411.34082031 C-103.22179581 410.6477327 -103.91575958 409.95464508 -104.63075256 409.24055481 C-106.89597664 406.97118729 -109.13925821 404.68140038 -111.3828125 402.390625 C-112.95903953 400.80319448 -114.53660618 399.2170931 -116.115448 397.63226318 C-120.24859736 393.47630721 -124.36340226 389.30264693 -128.47454834 385.12493896 C-132.68035919 380.85753058 -136.90340549 376.60725328 -141.125 372.35546875 C-149.39188371 364.0244164 -157.6394741 355.67454387 -165.875 347.3125 C-169.79342004 348.90072847 -172.41716518 351.59107376 -175.32878113 354.5526886 C-175.86740022 355.09242111 -176.40601932 355.63215362 -176.96096021 356.18824166 C-178.76545884 357.99881399 -180.56269948 359.81642361 -182.36010742 361.6340332 C-183.65283466 362.93387359 -184.94603397 364.23324464 -186.2396698 365.53218079 C-189.02739441 368.33301531 -191.81207897 371.1368261 -194.59456444 373.94286537 C-199.00804767 378.39298994 -203.43026315 382.83436682 -207.8540802 387.2742157 C-220.43393484 399.90231621 -233.00222392 412.54188857 -245.5612793 425.19067383 C-252.49592504 432.17470972 -259.43797121 439.15130725 -266.38776094 446.12027425 C-270.77187658 450.51735718 -275.14688311 454.92323469 -279.51503026 459.33617842 C-282.25935801 462.10427064 -285.01230786 464.86366841 -287.76754951 467.62089348 C-289.0266172 468.88419176 -290.28232386 470.15085212 -291.53403473 471.42144012 C-302.99054085 483.04370934 -315.62974813 494.47028842 -330.375 501.75 C-331.14980713 502.14558105 -331.92461426 502.54116211 -332.72290039 502.94873047 C-351.56323292 512.3125 -351.56323292 512.3125 -360.875 512.3125 C-357.24973905 480.26189749 -332.5118983 455.76696638 -310.8762207 434.20019531 C-309.61331529 432.93757279 -308.35063164 431.67472841 -307.08815002 430.41168213 C-303.69858159 427.02182968 -300.3059642 423.63504429 -296.91274285 420.24884892 C-293.3528736 416.69527981 -289.79588295 413.13883157 -286.23857117 409.58270264 C-279.51899626 402.86622156 -272.79687898 396.15229112 -266.07381839 389.43929935 C-258.412706 381.78940896 -250.75447198 374.13663979 -243.09646475 366.48364115 C-227.35915137 350.75674798 -211.61827114 335.03342905 -195.875 319.3125 C-197.16055436 316.48432092 -198.49340203 314.45143218 -200.70809937 312.27926636 C-201.28564468 311.70764267 -201.86319 311.13601898 -202.45823669 310.54707336 C-203.08996292 309.93196396 -203.72168915 309.31685455 -204.37255859 308.68310547 C-205.03942184 308.02558792 -205.7062851 307.36807037 -206.39335632 306.69062805 C-207.84108129 305.2638944 -209.29095649 303.83934007 -210.74271774 302.41671371 C-213.04365837 300.15985402 -215.3365437 297.89510593 -217.62710571 295.62771606 C-224.14022275 289.18173853 -230.66111629 282.74381213 -237.203125 276.32714844 C-241.20602873 272.39980724 -245.19394009 268.45775905 -249.1728096 264.50607681 C-250.68785804 263.00707758 -252.20843014 261.51363891 -253.73469162 260.0260582 C-255.8768271 257.93725609 -257.9993423 255.83018536 -260.11865234 253.71826172 C-260.74633011 253.1152977 -261.37400787 252.51233368 -262.02070618 251.89109802 C-267.32320648 246.53988414 -270.25531236 240.46001571 -271.37109375 232.9921875 C-271.18536253 224.10185333 -269.80391626 217.58774665 -263.68359375 210.91796875 C-259.13759355 206.88253444 -253.91255359 204.11578159 -247.875 203.3125 C-245.33769179 203.58205129 -242.88335743 203.92295015 -240.37271118 204.34596252 C-208.76609072 209.15449824 -171.31677831 213.32991881 -143.86927772 193.9396857 C-120.69260553 176.56666068 -101.12260296 154.28393794 -81.91298985 132.76086199 C-73.32216852 123.15538353 -64.4592266 113.81820163 -55.57168651 104.4879874 C-37.36982569 85.36780138 -19.51084209 65.95499274 -1.875 46.3125 C-4.03843034 41.55244435 -7.65830092 38.48392706 -11.44335938 34.99804688 C-15.78149151 30.84178465 -18.20484279 26.97723357 -19.30859375 20.94140625 C-19.31931128 15.27183139 -18.15172935 10.98899722 -14.875 6.3125 C-10.21584077 1.88629873 -6.42543341 0.02452455 0 0 Z " fill="#3FA9F4" transform="translate(360.875,-0.3125)"/>
<path d="M0 0 C3.93712187 1.82075671 6.63336039 4.37649498 9.640625 7.4453125 C10.16767029 7.97518768 10.69471558 8.50506287 11.23773193 9.05099487 C12.91325675 10.73767825 14.58167722 12.43119564 16.25 14.125 C17.38755851 15.27259388 18.52557436 16.41973461 19.6640625 17.56640625 C22.44803465 20.37238137 25.2256576 23.18450464 28 26 C26.40573192 29.9277402 23.70324694 32.58219676 20.74876404 35.5186615 C19.93727334 36.33694887 19.93727334 36.33694887 19.10938889 37.17176729 C17.29439014 38.99943039 15.47231271 40.81986566 13.65014648 42.64038086 C12.34700077 43.94951127 11.04426629 45.25905115 9.74191284 46.56896973 C6.19838454 50.13018909 2.64836787 53.6848719 -0.90337873 57.23789287 C-3.12749971 59.46343631 -5.35018991 61.69039833 -7.57237053 63.9178791 C-15.3415934 71.70562517 -23.11598766 79.48816556 -30.89526367 87.26586914 C-38.11597862 94.48538788 -45.32552321 101.71592626 -52.52977616 108.95186895 C-58.73343316 115.18182706 -64.94492994 121.40389667 -71.16238731 127.62008196 C-74.86702096 131.32420925 -78.56858536 135.03127239 -82.26226997 138.74632072 C-85.74909692 142.25275932 -89.2457305 145.74913407 -92.74956131 149.2385788 C-94.02144177 150.50839688 -95.29004072 151.78151352 -96.55474281 153.05848122 C-108.0657391 164.67367981 -120.72390763 176.1425625 -135.5 183.4375 C-136.27480713 183.83308105 -137.04961426 184.22866211 -137.84790039 184.63623047 C-156.68823292 194 -156.68823292 194 -166 194 C-162.36953772 161.90341304 -137.57281477 137.39084802 -115.90942383 115.79589844 C-114.63666633 114.52342381 -113.36413057 113.25072736 -112.09179688 111.97782898 C-108.67536984 108.5611179 -105.25589348 105.1474741 -101.83581376 101.73441982 C-98.24791757 98.15282321 -94.66289944 94.56834802 -91.07756042 90.98419189 C-84.3048615 84.21458697 -77.52962013 77.44753267 -70.75343579 70.68141675 C-63.03186532 62.97106776 -55.31317276 55.25784044 -47.59470713 47.54438353 C-31.73297946 31.69307646 -15.8676849 15.84534352 0 0 Z " fill="#CBCBCC" transform="translate(166,318)"/>
</svg>
