<?xml version="1.0" encoding="UTF-8"?>
<svg version="1.1" xmlns="http://www.w3.org/2000/svg" width="512" height="512">
<path d="M0 0 C0.81021606 -0.00988449 1.62043213 -0.01976898 2.4552002 -0.029953 C49.66388139 -0.48643876 92.32253864 10.57741957 130.4453125 39.23828125 C131.71955078 40.18960938 131.71955078 40.18960938 133.01953125 41.16015625 C143.60943701 49.35201724 154.11373539 58.72556013 162.4453125 69.23828125 C163.198125 70.16511719 163.9509375 71.09195313 164.7265625 72.046875 C171.35534138 80.33641664 177.0673668 89.09532239 182.4453125 98.23828125 C182.80367188 98.84365723 183.16203125 99.4490332 183.53125 100.07275391 C198.08802522 124.99302276 207.39417182 155.99608796 207.68359375 184.92578125 C207.6933876 185.73754318 207.70318146 186.54930511 207.71327209 187.38566589 C207.88520729 205.33850308 207.73812553 222.6945933 203.4453125 240.23828125 C203.12385254 241.5826123 203.12385254 241.5826123 202.79589844 242.95410156 C191.80468949 287.67088323 164.8645277 328.27733685 127.4453125 355.23828125 C126.86346191 355.65916016 126.28161133 356.08003906 125.68212891 356.51367188 C82.71616013 387.20870142 29.12820007 398.29344825 -22.77490234 389.73876953 C-44.20486805 385.880397 -64.14103387 378.53289405 -83.35498047 368.38574219 C-86.07126346 366.96881322 -88.8133914 365.60607984 -91.5546875 364.23828125 C-92.26330492 364.95335122 -92.97192234 365.66842119 -93.70201302 366.40515995 C-110.97749215 383.83631738 -128.27334668 401.2470539 -145.59051704 418.636796 C-153.96465132 427.04696192 -162.33214095 435.46354127 -170.68408203 443.89575195 C-177.9671097 451.24874224 -185.26252765 458.58917471 -192.57283485 465.91504806 C-196.44004315 469.79134961 -200.3009388 473.67348469 -204.14703751 477.57074165 C-207.77445409 481.24600984 -211.41833519 484.9041414 -215.07497787 488.55032539 C-216.40724702 489.88450524 -217.73362356 491.22460243 -219.05325317 492.57128525 C-229.54281171 503.26505973 -240.40327307 512.1720012 -256.05297852 512.53100586 C-270.70136554 512.64679773 -281.52117978 509.55341858 -292.51953125 499.4296875 C-302.94563365 488.45604361 -305.0432002 476.68248924 -304.83203125 462.24609375 C-304.20667321 445.50143222 -292.3669615 434.61274745 -281.20556641 423.54858398 C-279.84444789 422.18831282 -278.48399188 420.82737848 -277.12414551 419.46583557 C-273.44948516 415.79031808 -269.76568019 412.12409351 -266.08010912 408.45952106 C-262.22301381 404.62123937 -258.37446977 400.77440263 -254.5249939 396.92848206 C-247.24259273 389.65538759 -239.95258129 382.38997137 -232.65977514 375.12731177 C-224.35397392 366.85509734 -216.05673744 358.57431485 -207.76019406 350.292817 C-190.70117592 333.26511675 -173.63147997 316.24815456 -156.5546875 299.23828125 C-157.09085693 298.16594238 -157.62702637 297.09360352 -158.17944336 295.98876953 C-162.45678711 287.43408203 -162.45678711 287.43408203 -163.51450157 285.3182621 C-164.20239878 283.94272626 -164.89070711 282.56739593 -165.57944679 281.19228172 C-188.19651332 236.0226475 -190.83181671 181.0296395 -174.95703125 133.30078125 C-164.95154029 104.59000178 -149.47429117 80.17689141 -128.5546875 58.23828125 C-127.71679688 57.3359375 -126.87890625 56.43359375 -126.015625 55.50390625 C-94.61903229 22.68450722 -45.52293212 0.45485505 0 0 Z " fill="#E0F9FE" transform="translate(304.5546875,-0.23828125)"/>
<path d="M0 0 C12.79003919 5.66849853 24.309844 28.445193 30.8868103 39.83622742 C31.54294312 40.96028992 32.19907593 42.08435242 32.87509155 43.24247742 C46.8372052 67.84900829 55.8412994 98.15676878 56.12509155 126.52372742 C56.13488541 127.33548935 56.14467926 128.14725128 56.1547699 128.98361206 C56.32670509 146.93644924 56.17962333 164.29253947 51.8868103 181.83622742 C51.56535034 183.18055847 51.56535034 183.18055847 51.23739624 184.55204773 C40.24618729 229.2688294 13.3060255 269.87528302 -24.1131897 296.83622742 C-24.69504028 297.25710632 -25.27689087 297.67798523 -25.87637329 298.11161804 C-68.84234207 328.80664759 -122.43030213 339.89139442 -174.33340454 331.3367157 C-195.76337025 327.47834316 -215.69953607 320.13084022 -234.91348267 309.98368835 C-237.62976565 308.56675938 -240.3718936 307.20402601 -243.1131897 305.83622742 C-243.82180712 306.55129739 -244.53042454 307.26636736 -245.26051521 308.00310612 C-262.53599435 325.43426354 -279.83184887 342.84500007 -297.14901924 360.23474216 C-305.52315352 368.64490809 -313.89064315 377.06148744 -322.24258423 385.49369812 C-329.5256119 392.84668841 -336.82102985 400.18712088 -344.13133705 407.51299423 C-347.99854534 411.38929578 -351.859441 415.27143085 -355.7055397 419.16868782 C-359.33295629 422.84395601 -362.97683739 426.50208756 -366.63348007 430.14827156 C-367.96574922 431.48245141 -369.29212576 432.82254859 -370.61175537 434.16923141 C-381.10131391 444.86300589 -391.96177527 453.76994736 -407.61148071 454.12895203 C-422.25986774 454.2447439 -433.07968197 451.15136474 -444.07803345 441.02763367 C-454.50413585 430.05398978 -456.60170239 418.2804354 -456.39053345 403.84403992 C-455.76517541 387.09937839 -443.9254637 376.21069361 -432.7640686 365.14653015 C-431.40295009 363.78625899 -430.04249408 362.42532464 -428.68264771 361.06378174 C-425.00798736 357.38826425 -421.32418239 353.72203967 -417.63861132 350.05746722 C-413.78151601 346.21918553 -409.93297196 342.3723488 -406.08349609 338.52642822 C-398.80109492 331.25333376 -391.51108349 323.98791754 -384.21827734 316.72525793 C-375.91247612 308.4530435 -367.61523964 300.17226101 -359.31869626 291.89076316 C-342.25967812 274.86306292 -325.18998217 257.84610073 -308.1131897 240.83622742 C-304.36171822 242.54240376 -303.11257443 244.04702084 -301.0506897 247.64872742 C-296.764755 254.6780298 -291.51738436 260.66116415 -286.1131897 266.83622742 C-284.88230647 268.27225785 -283.65273723 269.70941811 -282.4256897 271.14872742 C-281.6625647 272.03560242 -280.8994397 272.92247742 -280.1131897 273.83622742 C-275.87180199 273.32677336 -273.94677532 272.16275878 -270.96548462 269.1426239 C-270.18505295 268.36189011 -269.40462128 267.58115631 -268.60054016 266.77676392 C-267.7732692 265.92884781 -266.94599823 265.0809317 -266.09365845 264.20732117 C-265.23508743 263.34309036 -264.37651642 262.47885956 -263.4919281 261.58843994 C-260.75198963 258.8261121 -258.02628524 256.05020138 -255.3006897 253.27372742 C-253.44549075 251.39846702 -251.58938166 249.52410655 -249.73233032 247.65068054 C-245.18200442 243.05625303 -240.64328793 238.45059588 -236.1131897 233.83622742 C-234.83302679 234.78927592 -233.55383592 235.74363017 -232.27505493 236.6985321 C-231.56260117 237.22984741 -230.8501474 237.76116272 -230.11610413 238.30857849 C-227.71541064 240.13961868 -225.45105282 242.10238336 -223.1756897 244.08622742 C-193.91289655 268.00293336 -157.99033981 274.03469347 -121.24649048 271.65019226 C-116.41933244 271.15733832 -111.78023045 270.16267295 -107.1131897 268.83622742 C-106.31622681 268.61579773 -105.51926392 268.39536804 -104.69815063 268.16825867 C-81.53191187 261.57177034 -62.59929645 250.33964388 -45.1131897 233.83622742 C-44.36424438 233.15173523 -43.61529907 232.46724304 -42.84365845 231.76200867 C-19.12004706 209.28482169 -5.93307413 175.23103078 -4.92178345 142.96513367 C-4.24795515 105.81088976 -16.26787287 71.6434888 -41.7850647 44.20732117 C-42.44248657 43.52862976 -42.44248657 43.52862976 -43.1131897 42.83622742 C-41.67121502 39.54788059 -39.88194863 37.3381146 -37.36953735 34.78617859 C-36.60178986 34.0024437 -35.83404236 33.2187088 -35.04302979 32.41122437 C-34.21282318 31.57565506 -33.38261658 30.74008575 -32.5272522 29.87919617 C-31.67392303 29.01683853 -30.82059387 28.1544809 -29.94140625 27.26599121 C-28.13682873 25.44691401 -26.32943271 23.63062915 -24.5194397 21.81694031 C-21.7435724 19.02913328 -18.98689798 16.2232265 -16.2303772 13.41630554 C-14.47632026 11.65278978 -12.72114931 9.89038121 -10.9647522 8.12919617 C-10.13859406 7.28350571 -9.31243591 6.43781525 -8.46124268 5.5664978 C-7.68719086 4.79852371 -6.91313904 4.03054962 -6.1156311 3.23930359 C-5.43771515 2.55631699 -4.75979919 1.87333038 -4.06134033 1.16964722 C-2.1131897 -0.16377258 -2.1131897 -0.16377258 0 0 Z " fill="#6897F4" transform="translate(456.1131896972656,58.16377258300781)"/>
<path d="M0 0 C0.81021606 -0.00988449 1.62043213 -0.01976898 2.4552002 -0.029953 C60.51239179 -0.59133876 108.89285528 17.75995592 151.4453125 57.23828125 C137.11197917 71.57161458 122.77864583 85.90494792 108.4453125 100.23828125 C107.16514959 99.28523275 105.88595872 98.3308785 104.60717773 97.37597656 C103.89472397 96.84466125 103.1822702 96.31334595 102.44822693 95.76593018 C100.04753345 93.93488998 97.78317562 91.9721253 95.5078125 89.98828125 C69.04572346 68.36061232 33.63519367 58.66265278 -0.19775391 61.45654297 C-25.56694002 64.10858539 -49.26255433 72.48334658 -69.5546875 88.23828125 C-70.50472656 88.96789062 -71.45476562 89.6975 -72.43359375 90.44921875 C-99.91692659 112.23711822 -118.21248154 144.32803027 -122.5546875 179.23828125 C-122.87318013 184.40540062 -122.94485672 189.56281755 -122.9296875 194.73828125 C-122.92914368 195.43971252 -122.92859985 196.1411438 -122.92803955 196.86383057 C-122.88598405 208.70632328 -121.81441333 219.82169519 -118.5546875 231.23828125 C-118.24917969 232.36049072 -118.24917969 232.36049072 -117.9375 233.50537109 C-111.73232098 255.82199102 -99.40295013 273.80374336 -84.5546875 291.23828125 C-85.98182475 294.47504758 -87.72128019 296.67569821 -90.19067383 299.1965332 C-91.30742241 300.34210442 -91.30742241 300.34210442 -92.44673157 301.51081848 C-93.25192734 302.32451401 -94.05712311 303.13820953 -94.88671875 303.9765625 C-95.71548019 304.81672409 -96.54424164 305.65688568 -97.39811707 306.52250671 C-99.15132459 308.29459286 -100.90744856 310.06379768 -102.66625977 311.83032227 C-105.36052158 314.54406712 -108.03272902 317.27836874 -110.70507812 320.01367188 C-112.41013546 321.73178259 -114.11647314 323.44862383 -115.82421875 325.1640625 C-116.62334183 325.98787918 -117.4224649 326.81169586 -118.24580383 327.66047668 C-118.99975937 328.40843002 -119.7537149 329.15638336 -120.53051758 329.92700195 C-121.18844803 330.59222366 -121.84637848 331.25744537 -122.52424622 331.94282532 C-124.5546875 333.23828125 -124.5546875 333.23828125 -127.16752625 333.06217957 C-137.01810142 329.66237895 -145.17078961 313.7867922 -150.94287109 305.52783203 C-152.04458144 303.96287601 -153.16296307 302.4095591 -154.29541016 300.86669922 C-158.76393031 294.70546486 -162.29129242 288.35807413 -165.5546875 281.48828125 C-166.33005859 279.85898682 -166.33005859 279.85898682 -167.12109375 278.19677734 C-188.69457117 231.73134588 -190.76910146 176.60378635 -173.2421875 128.48828125 C-163.06226649 101.68023382 -148.29677781 78.94202066 -128.5546875 58.23828125 C-127.71679688 57.3359375 -126.87890625 56.43359375 -126.015625 55.50390625 C-94.61903229 22.68450722 -45.52293212 0.45485505 0 0 Z " fill="#76CDFA" transform="translate(304.5546875,-0.23828125)"/>
<path d="M0 0 C22.46409464 17.09224592 36.10243289 49.22693749 40.12084961 76.50317383 C44.69714906 113.58394792 35.72795187 150.21579505 13 180 C9.56243091 184.23006256 5.83357655 188.12557864 2 192 C1.28714844 192.7734375 0.57429687 193.546875 -0.16015625 194.34375 C-16.7481028 211.9548783 -38.96912024 222.62995481 -62 229 C-62.67579102 229.19207031 -63.35158203 229.38414062 -64.04785156 229.58203125 C-84.59418916 235.12309193 -110.77553494 234.09086216 -131 228 C-131.97477295 227.72712158 -131.97477295 227.72712158 -132.96923828 227.44873047 C-155.33411132 221.15280772 -173.85854569 208.32197033 -191 193 C-186.79715929 188.79541256 -182.58992668 184.59523762 -178.38214111 180.39559937 C-176.80430926 178.82070092 -175.22648473 177.24579515 -173.64866638 175.67088318 C-172.38855145 174.41309461 -172.38855145 174.41309461 -171.10297966 173.12989616 C-152.37365443 154.4348156 -133.64940506 135.73465969 -114.92875828 117.03088894 C-112.16494609 114.2695778 -109.4010901 111.5083105 -106.63720703 108.74707031 C-105.81194616 107.92259637 -105.81194616 107.92259637 -104.97001335 107.08146639 C-96.04027774 98.16045368 -87.10701797 89.24297789 -78.17247477 80.32678036 C-68.99856654 71.17155237 -59.82843865 62.01255075 -50.66183352 52.85001051 C-45.00728106 47.19820508 -39.34977896 41.54938559 -33.68849245 35.90432538 C-29.35679755 31.58441769 -25.03036218 27.25927834 -20.70590782 22.93212318 C-18.92781564 21.15458336 -17.14799582 19.37876985 -15.36636543 17.60477638 C-12.9429336 15.19122858 -10.52567387 12.77166675 -8.10992432 10.35043335 C-7.39642232 9.64275704 -6.68292033 8.93508073 -5.94779706 8.20595968 C-4.98279346 7.23498293 -4.98279346 7.23498293 -3.99829483 6.24439049 C-3.43939883 5.68625392 -2.88050282 5.12811736 -2.30467057 4.55306756 C-0.76789689 2.91715964 -0.76789689 2.91715964 0 0 Z " fill="#C6F4FE" transform="translate(411,99)"/>
<path d="M0 0 C3.75147148 1.70617635 5.00061527 3.21079342 7.0625 6.8125 C11.00724824 13.26600676 15.68050817 18.82234491 20.6640625 24.48046875 C21.87028752 25.85246154 23.06110853 27.23795996 24.25 28.625 C36.15884539 42.28514618 49.97279716 52.98186478 65 63 C63.39175366 66.98885291 60.60510766 69.68853021 57.61468506 72.67292786 C57.0593239 73.23493682 56.50396275 73.79694579 55.93177247 74.37598532 C54.06833639 76.25911542 52.197802 78.1350277 50.32714844 80.01098633 C48.98959994 81.35943039 47.65244107 82.70826102 46.31564331 84.05744934 C42.67967008 87.72394443 39.03695556 91.38366668 35.3920393 95.04126954 C33.11198792 97.32940906 30.83298751 99.61859053 28.55426788 101.90805626 C21.41614956 109.07890748 14.27362099 116.2453265 7.12521529 123.40592271 C-1.11036935 131.65573641 -9.33096105 139.92011307 -17.5388453 148.19748479 C-23.89267977 154.60323553 -30.26002839 160.99535045 -36.63755393 167.37751406 C-40.44160459 171.1849518 -44.23978905 174.99782127 -48.02387238 178.8251133 C-51.59043146 182.43167723 -55.17360637 186.02089237 -58.76968002 189.59802055 C-60.07934011 190.90642338 -61.38314496 192.22072065 -62.680233 193.54158783 C-73.10672468 204.14805541 -83.97327682 212.93658037 -99.49829102 213.29272461 C-114.14667804 213.40851648 -124.96649228 210.31513733 -135.96484375 200.19140625 C-146.39094615 189.21776236 -148.4885127 177.44420799 -148.27734375 163.0078125 C-147.65198571 146.26315097 -135.812274 135.3744662 -124.65087891 124.31030273 C-123.28976039 122.95003157 -121.92930438 121.58909723 -120.56945801 120.22755432 C-116.89479766 116.55203683 -113.21099269 112.88581226 -109.52542162 109.22123981 C-105.66832631 105.38295812 -101.81978227 101.53612138 -97.9703064 97.69020081 C-90.68790523 90.41710634 -83.39789379 83.15169012 -76.10508764 75.88903052 C-67.79928642 67.61681609 -59.50204994 59.3360336 -51.20550656 51.05453575 C-34.14648842 34.0268355 -17.07679247 17.00987331 0 0 Z " fill="#454A51" transform="translate(148,299)"/>
<path d="M0 0 C3.51621035 1.65866796 5.82293312 3.5949399 8.625 6.3125 C17.01922296 14.10388581 26.4816471 20.6544314 36 27 C34.39175366 30.98885291 31.60510766 33.68853021 28.61468506 36.67292786 C27.78164333 37.5159413 27.78164333 37.5159413 26.93177247 38.37598532 C25.06833639 40.25911542 23.197802 42.1350277 21.32714844 44.01098633 C19.98959994 45.35943039 18.65244107 46.70826102 17.31564331 48.05744934 C13.67967008 51.72394443 10.03695556 55.38366668 6.3920393 59.04126954 C4.11198792 61.32940906 1.83298751 63.61859053 -0.44573212 65.90805626 C-7.58385044 73.07890748 -14.72637901 80.2453265 -21.87478471 87.40592271 C-30.11036935 95.65573641 -38.33096105 103.92011307 -46.5388453 112.19748479 C-52.89267977 118.60323553 -59.26002839 124.99535045 -65.63755393 131.37751406 C-69.44160459 135.1849518 -73.23978905 138.99782127 -77.02387238 142.8251133 C-80.59043146 146.43167723 -84.17360637 150.02089237 -87.76968002 153.59802055 C-89.07934011 154.90642338 -90.38314496 156.22072065 -91.680233 157.54158783 C-102.10672468 168.14805541 -112.97327682 176.93658037 -128.49829102 177.29272461 C-142.36530894 177.40233996 -151.94264512 174.70889012 -163 166 C-162.42108814 162.8625803 -161.598353 161.22399389 -159.34693813 158.97779465 C-158.780637 158.40552037 -158.21433587 157.83324609 -157.6308741 157.24363017 C-157.00345331 156.62494791 -156.37603253 156.00626565 -155.729599 155.36883545 C-155.06720909 154.70388227 -154.40481918 154.03892909 -153.72235686 153.35382581 C-151.49377325 151.12028807 -149.25461215 148.89766375 -147.01538086 146.67480469 C-145.41855037 145.07882011 -143.82237959 143.48217524 -142.2268219 141.88491821 C-137.88660524 137.5438388 -133.53718337 133.21208826 -129.18609309 128.88191128 C-124.643015 124.3575532 -120.10839882 119.82473056 -115.57289124 115.29278564 C-107.95697373 107.68514101 -100.33584258 100.08276423 -92.71069336 92.484375 C-84.85659505 84.65781156 -77.00565216 76.82810505 -69.15893555 68.99414062 C-68.67530499 68.51129824 -68.19167443 68.02845585 -67.6933884 67.53098187 C-65.26718793 65.1086965 -62.8410494 62.6863491 -60.41494167 60.26397085 C-40.28622254 40.16635448 -20.14654714 20.07974381 0 0 Z " fill="#292B2F" transform="translate(177,335)"/>
</svg>
